<svg width="1440" height="1314" viewBox="0 0 1440 1314" fill="none" xmlns="http://www.w3.org/2000/svg">
<g clip-path="url(#clip0_1_114)">
<rect width="1440" height="1314" fill="#1D2023"/>
<rect width="720" height="100" transform="translate(0 1214)" fill="#2C3135"/>
<path d="M433.281 1271L428.781 1264.99H427.17V1271H425.585V1257.91H427.17V1263.59H427.861L433.102 1257.91H434.994L429.702 1263.66L435.173 1271H433.281ZM440.285 1271.2C439.399 1271.2 438.621 1270.99 437.952 1270.57C437.287 1270.15 436.768 1269.56 436.393 1268.8C436.022 1268.04 435.836 1267.16 435.836 1266.14C435.836 1265.12 436.022 1264.23 436.393 1263.46C436.768 1262.7 437.287 1262.11 437.952 1261.69C438.621 1261.26 439.399 1261.05 440.285 1261.05C441.172 1261.05 441.947 1261.26 442.612 1261.69C443.281 1262.11 443.801 1262.7 444.172 1263.46C444.547 1264.23 444.734 1265.12 444.734 1266.14C444.734 1267.16 444.547 1268.04 444.172 1268.8C443.801 1269.56 443.281 1270.15 442.612 1270.57C441.947 1270.99 441.172 1271.2 440.285 1271.2ZM440.285 1269.85C440.959 1269.85 441.513 1269.68 441.947 1269.33C442.382 1268.99 442.704 1268.53 442.912 1267.97C443.121 1267.41 443.226 1266.8 443.226 1266.14C443.226 1265.49 443.121 1264.87 442.912 1264.31C442.704 1263.74 442.382 1263.28 441.947 1262.93C441.513 1262.58 440.959 1262.41 440.285 1262.41C439.612 1262.41 439.058 1262.58 438.623 1262.93C438.189 1263.28 437.867 1263.74 437.658 1264.31C437.449 1264.87 437.345 1265.49 437.345 1266.14C437.345 1266.8 437.449 1267.41 437.658 1267.97C437.867 1268.53 438.189 1268.99 438.623 1269.33C439.058 1269.68 439.612 1269.85 440.285 1269.85ZM452.406 1268.95L455.832 1261.18H457.264L453.02 1271H451.793L447.625 1261.18H449.031L452.406 1268.95ZM448.545 1261.18V1271H447.037V1261.18H448.545ZM456.267 1271V1261.18H457.776V1271H456.267ZM463.426 1271.23C462.804 1271.23 462.239 1271.11 461.732 1270.88C461.225 1270.64 460.822 1270.3 460.524 1269.85C460.226 1269.4 460.077 1268.85 460.077 1268.21C460.077 1267.65 460.188 1267.19 460.409 1266.85C460.631 1266.49 460.927 1266.21 461.298 1266.01C461.668 1265.81 462.077 1265.66 462.525 1265.57C462.977 1265.46 463.43 1265.38 463.886 1265.32C464.483 1265.25 464.967 1265.19 465.337 1265.15C465.712 1265.11 465.985 1265.04 466.156 1264.94C466.33 1264.84 466.418 1264.67 466.418 1264.43V1264.38C466.418 1263.75 466.245 1263.26 465.9 1262.91C465.559 1262.56 465.041 1262.38 464.347 1262.38C463.626 1262.38 463.062 1262.54 462.653 1262.86C462.244 1263.17 461.956 1263.51 461.79 1263.87L460.358 1263.36C460.614 1262.76 460.955 1262.29 461.381 1261.96C461.811 1261.62 462.28 1261.39 462.787 1261.26C463.298 1261.12 463.801 1261.05 464.295 1261.05C464.611 1261.05 464.973 1261.09 465.382 1261.17C465.795 1261.24 466.194 1261.39 466.577 1261.62C466.965 1261.85 467.287 1262.2 467.543 1262.66C467.798 1263.13 467.926 1263.75 467.926 1264.53V1271H466.418V1269.67H466.341C466.239 1269.88 466.068 1270.11 465.83 1270.35C465.591 1270.6 465.273 1270.8 464.877 1270.97C464.481 1271.14 463.997 1271.23 463.426 1271.23ZM463.656 1269.88C464.253 1269.88 464.756 1269.76 465.165 1269.52C465.578 1269.29 465.889 1268.99 466.098 1268.62C466.311 1268.25 466.418 1267.86 466.418 1267.45V1266.07C466.354 1266.14 466.213 1266.21 465.996 1266.28C465.783 1266.34 465.536 1266.39 465.254 1266.44C464.977 1266.48 464.707 1266.52 464.442 1266.55C464.183 1266.58 463.972 1266.61 463.81 1266.63C463.418 1266.68 463.051 1266.76 462.71 1266.88C462.374 1266.99 462.101 1267.16 461.892 1267.38C461.688 1267.6 461.585 1267.91 461.585 1268.29C461.585 1268.81 461.779 1269.21 462.167 1269.48C462.559 1269.74 463.055 1269.88 463.656 1269.88ZM477.251 1265.4V1266.81H471.83V1265.4H477.251ZM472.188 1261.18V1271H470.68V1261.18H472.188ZM478.401 1261.18V1271H476.893V1261.18H478.401ZM480.108 1273.81V1269.59H480.926C481.126 1269.38 481.299 1269.16 481.444 1268.92C481.589 1268.67 481.714 1268.39 481.821 1268.05C481.932 1267.72 482.025 1267.31 482.102 1266.83C482.179 1266.34 482.247 1265.75 482.307 1265.07L482.639 1261.18H488.878V1269.59H490.386V1273.81H488.878V1271H481.616V1273.81H480.108ZM482.639 1269.59H487.369V1262.59H484.045L483.79 1265.07C483.683 1266.1 483.551 1266.99 483.393 1267.76C483.236 1268.53 482.984 1269.14 482.639 1269.59ZM495.278 1271.23C494.656 1271.23 494.091 1271.11 493.584 1270.88C493.077 1270.64 492.674 1270.3 492.376 1269.85C492.077 1269.4 491.928 1268.85 491.928 1268.21C491.928 1267.65 492.039 1267.19 492.261 1266.85C492.482 1266.49 492.778 1266.21 493.149 1266.01C493.52 1265.81 493.929 1265.66 494.376 1265.57C494.828 1265.46 495.282 1265.38 495.738 1265.32C496.335 1265.25 496.818 1265.19 497.189 1265.15C497.564 1265.11 497.837 1265.04 498.007 1264.94C498.182 1264.84 498.269 1264.67 498.269 1264.43V1264.38C498.269 1263.75 498.097 1263.26 497.751 1262.91C497.411 1262.56 496.893 1262.38 496.198 1262.38C495.478 1262.38 494.913 1262.54 494.504 1262.86C494.095 1263.17 493.808 1263.51 493.641 1263.87L492.21 1263.36C492.465 1262.76 492.806 1262.29 493.232 1261.96C493.663 1261.62 494.131 1261.39 494.638 1261.26C495.15 1261.12 495.653 1261.05 496.147 1261.05C496.462 1261.05 496.825 1261.09 497.234 1261.17C497.647 1261.24 498.045 1261.39 498.429 1261.62C498.817 1261.85 499.138 1262.2 499.394 1262.66C499.65 1263.13 499.778 1263.75 499.778 1264.53V1271H498.269V1269.67H498.192C498.09 1269.88 497.92 1270.11 497.681 1270.35C497.442 1270.6 497.125 1270.8 496.729 1270.97C496.332 1271.14 495.849 1271.23 495.278 1271.23ZM495.508 1269.88C496.104 1269.88 496.607 1269.76 497.016 1269.52C497.43 1269.29 497.741 1268.99 497.95 1268.62C498.163 1268.25 498.269 1267.86 498.269 1267.45V1266.07C498.205 1266.14 498.065 1266.21 497.847 1266.28C497.634 1266.34 497.387 1266.39 497.106 1266.44C496.829 1266.48 496.558 1266.52 496.294 1266.55C496.034 1266.58 495.823 1266.61 495.661 1266.63C495.269 1266.68 494.903 1266.76 494.562 1266.88C494.225 1266.99 493.952 1267.16 493.744 1267.38C493.539 1267.6 493.437 1267.91 493.437 1268.29C493.437 1268.81 493.631 1269.21 494.018 1269.48C494.411 1269.74 494.907 1269.88 495.508 1269.88ZM511.327 1269.59H509.997L507.415 1265.76V1265.63H508.872L511.327 1269.59ZM511.327 1261.74L508.872 1265.71H507.415V1265.58L509.997 1261.74H511.327ZM514.599 1269.59H513.27L510.687 1265.76V1265.63H512.145L514.599 1269.59ZM514.599 1261.74L512.145 1265.71H510.687V1265.58L513.27 1261.74H514.599ZM527.311 1257.91V1271H525.726V1259.32H519.13V1271H517.544V1257.91H527.311ZM530.305 1274.68V1261.18H531.762V1262.74H531.941C532.052 1262.57 532.205 1262.35 532.401 1262.09C532.601 1261.82 532.887 1261.58 533.258 1261.37C533.633 1261.16 534.14 1261.05 534.779 1261.05C535.606 1261.05 536.334 1261.26 536.965 1261.67C537.596 1262.09 538.088 1262.67 538.442 1263.43C538.795 1264.19 538.972 1265.09 538.972 1266.12C538.972 1267.16 538.795 1268.06 538.442 1268.82C538.088 1269.58 537.598 1270.17 536.971 1270.58C536.345 1271 535.623 1271.2 534.805 1271.2C534.174 1271.2 533.669 1271.1 533.29 1270.89C532.91 1270.68 532.618 1270.44 532.414 1270.17C532.209 1269.9 532.052 1269.67 531.941 1269.49H531.813V1274.68H530.305ZM531.787 1266.09C531.787 1266.83 531.896 1267.49 532.113 1268.05C532.331 1268.62 532.648 1269.06 533.066 1269.38C533.483 1269.69 533.995 1269.85 534.6 1269.85C535.231 1269.85 535.757 1269.68 536.179 1269.35C536.605 1269.01 536.925 1268.56 537.138 1268C537.355 1267.42 537.464 1266.79 537.464 1266.09C537.464 1265.4 537.357 1264.78 537.144 1264.22C536.935 1263.67 536.618 1263.23 536.192 1262.9C535.77 1262.57 535.239 1262.41 534.6 1262.41C533.986 1262.41 533.471 1262.56 533.053 1262.88C532.635 1263.18 532.32 1263.61 532.107 1264.17C531.894 1264.72 531.787 1265.36 531.787 1266.09ZM542.782 1268.78L547.512 1261.18H549.251V1271H547.742V1263.41L543.037 1271H541.273V1261.18H542.782V1268.78ZM552.013 1261.18H553.522V1269.59H557.229V1261.18H558.738V1269.59H562.445V1261.18H563.954V1271H552.013V1261.18ZM565.839 1271V1269.59H566.197C566.491 1269.59 566.737 1269.54 566.933 1269.42C567.129 1269.3 567.286 1269.1 567.406 1268.8C567.529 1268.5 567.623 1268.09 567.687 1267.56C567.755 1267.03 567.804 1266.35 567.834 1265.53L568.013 1261.18H574.558V1271H573.05V1262.59H569.445L569.291 1266.09C569.257 1266.9 569.185 1267.61 569.074 1268.22C568.967 1268.83 568.803 1269.34 568.582 1269.75C568.364 1270.17 568.075 1270.48 567.712 1270.69C567.35 1270.9 566.896 1271 566.351 1271H565.839ZM578.835 1268.78L583.565 1261.18H585.303V1271H583.795V1263.41L579.09 1271H577.326V1261.18H578.835V1268.78ZM593.129 1271V1261.18H600.85V1271H599.342V1262.59H594.637V1271H593.129ZM605.114 1268.78L609.844 1261.18H611.583V1271H610.074V1263.41L605.369 1271H603.605V1261.18H605.114V1268.78ZM613.01 1262.59V1261.18H620.987V1262.59H617.765V1271H616.257V1262.59H613.01ZM624.491 1264.74H627.304C628.454 1264.74 629.334 1265.03 629.944 1265.61C630.553 1266.2 630.858 1266.93 630.858 1267.83C630.858 1268.42 630.721 1268.95 630.449 1269.43C630.176 1269.91 629.775 1270.29 629.247 1270.58C628.719 1270.86 628.071 1271 627.304 1271H623.187V1261.18H624.696V1269.59H627.304C627.9 1269.59 628.39 1269.44 628.774 1269.12C629.157 1268.81 629.349 1268.4 629.349 1267.91C629.349 1267.39 629.157 1266.96 628.774 1266.63C628.39 1266.31 627.9 1266.14 627.304 1266.14H624.491V1264.74ZM638.217 1271V1261.18H639.725V1265.45H640.722L644.251 1261.18H646.194L642.231 1265.91L646.245 1271H644.302L641.08 1266.86H639.725V1271H638.217ZM651.469 1271.2C650.583 1271.2 649.805 1270.99 649.136 1270.57C648.471 1270.15 647.951 1269.56 647.576 1268.8C647.205 1268.04 647.02 1267.16 647.02 1266.14C647.02 1265.12 647.205 1264.23 647.576 1263.46C647.951 1262.7 648.471 1262.11 649.136 1261.69C649.805 1261.26 650.583 1261.05 651.469 1261.05C652.355 1261.05 653.131 1261.26 653.796 1261.69C654.465 1262.11 654.985 1262.7 655.355 1263.46C655.73 1264.23 655.918 1265.12 655.918 1266.14C655.918 1267.16 655.73 1268.04 655.355 1268.8C654.985 1269.56 654.465 1270.15 653.796 1270.57C653.131 1270.99 652.355 1271.2 651.469 1271.2ZM651.469 1269.85C652.142 1269.85 652.696 1269.68 653.131 1269.33C653.566 1268.99 653.887 1268.53 654.096 1267.97C654.305 1267.41 654.409 1266.8 654.409 1266.14C654.409 1265.49 654.305 1264.87 654.096 1264.31C653.887 1263.74 653.566 1263.28 653.131 1262.93C652.696 1262.58 652.142 1262.41 651.469 1262.41C650.796 1262.41 650.242 1262.58 649.807 1262.93C649.372 1263.28 649.051 1263.74 648.842 1264.31C648.633 1264.87 648.529 1265.49 648.529 1266.14C648.529 1266.8 648.633 1267.41 648.842 1267.97C649.051 1268.53 649.372 1268.99 649.807 1269.33C650.242 1269.68 650.796 1269.85 651.469 1269.85ZM662.209 1274.35V1257.91H663.718V1274.35H662.209ZM662.209 1271.2C661.544 1271.2 660.939 1271.09 660.394 1270.85C659.848 1270.6 659.38 1270.26 658.988 1269.82C658.596 1269.37 658.293 1268.84 658.08 1268.21C657.867 1267.59 657.76 1266.9 657.76 1266.14C657.76 1265.37 657.867 1264.68 658.08 1264.06C658.293 1263.43 658.596 1262.89 658.988 1262.45C659.38 1262 659.848 1261.66 660.394 1261.42C660.939 1261.18 661.544 1261.05 662.209 1261.05H662.669V1271.2H662.209ZM662.209 1269.85H662.465V1262.41H662.209C661.706 1262.41 661.27 1262.51 660.899 1262.72C660.528 1262.92 660.221 1263.19 659.978 1263.54C659.74 1263.89 659.561 1264.28 659.441 1264.73C659.326 1265.18 659.269 1265.65 659.269 1266.14C659.269 1266.8 659.373 1267.41 659.582 1267.97C659.791 1268.53 660.113 1268.99 660.547 1269.33C660.982 1269.68 661.536 1269.85 662.209 1269.85ZM663.718 1271.2H663.257V1261.05H663.718C664.382 1261.05 664.988 1261.18 665.533 1261.42C666.078 1261.66 666.547 1262 666.939 1262.45C667.331 1262.89 667.634 1263.43 667.847 1264.06C668.06 1264.68 668.167 1265.37 668.167 1266.14C668.167 1266.9 668.06 1267.59 667.847 1268.21C667.634 1268.84 667.331 1269.37 666.939 1269.82C666.547 1270.26 666.078 1270.6 665.533 1270.85C664.988 1271.09 664.382 1271.2 663.718 1271.2ZM663.718 1269.85C664.225 1269.85 664.662 1269.75 665.028 1269.56C665.399 1269.36 665.703 1269.08 665.942 1268.74C666.185 1268.39 666.364 1267.99 666.479 1267.55C666.598 1267.1 666.658 1266.63 666.658 1266.14C666.658 1265.49 666.554 1264.87 666.345 1264.31C666.136 1263.74 665.814 1263.28 665.38 1262.93C664.945 1262.58 664.391 1262.41 663.718 1262.41H663.462V1269.85H663.718ZM674.589 1271.2C673.643 1271.2 672.827 1271 672.141 1270.58C671.459 1270.16 670.933 1269.57 670.562 1268.81C670.195 1268.06 670.012 1267.17 670.012 1266.17C670.012 1265.16 670.195 1264.28 670.562 1263.51C670.933 1262.74 671.448 1262.14 672.109 1261.71C672.774 1261.27 673.549 1261.05 674.436 1261.05C674.947 1261.05 675.452 1261.14 675.95 1261.31C676.449 1261.48 676.903 1261.76 677.312 1262.14C677.721 1262.52 678.047 1263.02 678.29 1263.65C678.533 1264.28 678.654 1265.05 678.654 1265.96V1266.6H671.086V1265.3H677.12C677.12 1264.74 677.009 1264.25 676.788 1263.82C676.57 1263.38 676.259 1263.04 675.855 1262.79C675.454 1262.53 674.981 1262.41 674.436 1262.41C673.835 1262.41 673.315 1262.56 672.876 1262.86C672.441 1263.15 672.107 1263.53 671.872 1264.01C671.638 1264.48 671.521 1264.99 671.521 1265.53V1266.4C671.521 1267.14 671.649 1267.77 671.904 1268.28C672.164 1268.79 672.524 1269.18 672.985 1269.45C673.445 1269.72 673.98 1269.85 674.589 1269.85C674.985 1269.85 675.343 1269.79 675.663 1269.68C675.987 1269.57 676.266 1269.4 676.5 1269.17C676.735 1268.94 676.916 1268.66 677.044 1268.32L678.501 1268.72C678.347 1269.22 678.09 1269.65 677.727 1270.03C677.365 1270.4 676.918 1270.69 676.385 1270.9C675.852 1271.1 675.254 1271.2 674.589 1271.2ZM680.77 1269.59L683.225 1265.63H684.682V1265.76L682.1 1269.59H680.77ZM680.77 1261.74H682.1L684.682 1265.58V1265.71H683.225L680.77 1261.74ZM684.043 1269.59L686.497 1265.63H687.955V1265.76L685.372 1269.59H684.043ZM684.043 1261.74H685.372L687.955 1265.58V1265.71H686.497L684.043 1261.74Z" fill="white"/>
<rect width="720" height="100" transform="translate(720 1214)" fill="#2C3135"/>
<path d="M759.281 1271L754.781 1264.99H753.17V1271H751.585V1257.91H753.17V1263.59H753.861L759.102 1257.91H760.994L755.702 1263.66L761.173 1271H759.281ZM763.268 1274.68C763.013 1274.68 762.785 1274.66 762.584 1274.62C762.384 1274.58 762.246 1274.54 762.169 1274.5L762.552 1273.17C762.919 1273.27 763.243 1273.3 763.524 1273.28C763.805 1273.25 764.055 1273.12 764.272 1272.9C764.493 1272.68 764.696 1272.32 764.879 1271.82L765.16 1271.05L761.53 1261.18H763.166L765.876 1269.01H765.979L768.689 1261.18H770.325L766.157 1272.43C765.97 1272.94 765.738 1273.36 765.461 1273.69C765.184 1274.03 764.862 1274.28 764.496 1274.44C764.133 1274.6 763.724 1274.68 763.268 1274.68ZM772.316 1274.68V1261.18H773.774V1262.74H773.953C774.063 1262.57 774.217 1262.35 774.413 1262.09C774.613 1261.82 774.899 1261.58 775.269 1261.37C775.644 1261.16 776.151 1261.05 776.791 1261.05C777.617 1261.05 778.346 1261.26 778.977 1261.67C779.607 1262.09 780.1 1262.67 780.453 1263.43C780.807 1264.19 780.984 1265.09 780.984 1266.12C780.984 1267.16 780.807 1268.06 780.453 1268.82C780.1 1269.58 779.61 1270.17 778.983 1270.58C778.357 1271 777.634 1271.2 776.816 1271.2C776.186 1271.2 775.681 1271.1 775.301 1270.89C774.922 1270.68 774.63 1270.44 774.426 1270.17C774.221 1269.9 774.063 1269.67 773.953 1269.49H773.825V1274.68H772.316ZM773.799 1266.09C773.799 1266.83 773.908 1267.49 774.125 1268.05C774.343 1268.62 774.66 1269.06 775.078 1269.38C775.495 1269.69 776.007 1269.85 776.612 1269.85C777.242 1269.85 777.769 1269.68 778.191 1269.35C778.617 1269.01 778.936 1268.56 779.149 1268C779.367 1267.42 779.475 1266.79 779.475 1266.09C779.475 1265.4 779.369 1264.78 779.156 1264.22C778.947 1263.67 778.629 1263.23 778.203 1262.9C777.781 1262.57 777.251 1262.41 776.612 1262.41C775.998 1262.41 775.482 1262.56 775.065 1262.88C774.647 1263.18 774.332 1263.61 774.119 1264.17C773.906 1264.72 773.799 1265.36 773.799 1266.09ZM787.274 1271.2C786.353 1271.2 785.561 1270.99 784.896 1270.55C784.231 1270.12 783.72 1269.52 783.362 1268.76C783.004 1267.99 782.825 1267.12 782.825 1266.14C782.825 1265.14 783.008 1264.26 783.374 1263.5C783.745 1262.74 784.261 1262.14 784.921 1261.71C785.586 1261.27 786.362 1261.05 787.248 1261.05C787.938 1261.05 788.561 1261.18 789.115 1261.44C789.669 1261.69 790.122 1262.05 790.476 1262.51C790.83 1262.97 791.049 1263.51 791.134 1264.12H789.626C789.511 1263.67 789.255 1263.28 788.859 1262.93C788.467 1262.58 787.938 1262.41 787.274 1262.41C786.686 1262.41 786.17 1262.56 785.727 1262.87C785.288 1263.17 784.945 1263.6 784.698 1264.15C784.455 1264.7 784.333 1265.35 784.333 1266.09C784.333 1266.85 784.453 1267.51 784.691 1268.07C784.934 1268.63 785.275 1269.07 785.714 1269.38C786.157 1269.69 786.677 1269.85 787.274 1269.85C787.666 1269.85 788.021 1269.78 788.341 1269.64C788.661 1269.51 788.931 1269.31 789.153 1269.06C789.374 1268.8 789.532 1268.49 789.626 1268.14H791.134C791.049 1268.72 790.838 1269.24 790.502 1269.7C790.169 1270.16 789.728 1270.53 789.178 1270.8C788.633 1271.07 787.998 1271.2 787.274 1271.2ZM797.328 1271.2C796.442 1271.2 795.664 1270.99 794.995 1270.57C794.33 1270.15 793.811 1269.56 793.436 1268.8C793.065 1268.04 792.879 1267.16 792.879 1266.14C792.879 1265.12 793.065 1264.23 793.436 1263.46C793.811 1262.7 794.33 1262.11 794.995 1261.69C795.664 1261.26 796.442 1261.05 797.328 1261.05C798.215 1261.05 798.99 1261.26 799.655 1261.69C800.324 1262.11 800.844 1262.7 801.215 1263.46C801.59 1264.23 801.777 1265.12 801.777 1266.14C801.777 1267.16 801.59 1268.04 801.215 1268.8C800.844 1269.56 800.324 1270.15 799.655 1270.57C798.99 1270.99 798.215 1271.2 797.328 1271.2ZM797.328 1269.85C798.002 1269.85 798.556 1269.68 798.99 1269.33C799.425 1268.99 799.747 1268.53 799.955 1267.97C800.164 1267.41 800.269 1266.8 800.269 1266.14C800.269 1265.49 800.164 1264.87 799.955 1264.31C799.747 1263.74 799.425 1263.28 798.99 1262.93C798.556 1262.58 798.002 1262.41 797.328 1262.41C796.655 1262.41 796.101 1262.58 795.666 1262.93C795.232 1263.28 794.91 1263.74 794.701 1264.31C794.492 1264.87 794.388 1265.49 794.388 1266.14C794.388 1266.8 794.492 1267.41 794.701 1267.97C794.91 1268.53 795.232 1268.99 795.666 1269.33C796.101 1269.68 796.655 1269.85 797.328 1269.85ZM804.08 1271V1261.18H808.094C809.151 1261.18 809.99 1261.42 810.613 1261.9C811.235 1262.38 811.546 1263.01 811.546 1263.79C811.546 1264.39 811.369 1264.85 811.015 1265.18C810.662 1265.5 810.208 1265.72 809.654 1265.84C810.016 1265.89 810.368 1266.01 810.708 1266.22C811.054 1266.42 811.339 1266.7 811.565 1267.06C811.791 1267.42 811.904 1267.85 811.904 1268.37C811.904 1268.87 811.776 1269.32 811.52 1269.72C811.265 1270.11 810.898 1270.42 810.421 1270.65C809.944 1270.88 809.373 1271 808.708 1271H804.08ZM805.512 1269.62H808.708C809.228 1269.62 809.635 1269.5 809.929 1269.25C810.223 1269 810.37 1268.66 810.37 1268.24C810.37 1267.73 810.223 1267.33 809.929 1267.04C809.635 1266.75 809.228 1266.6 808.708 1266.6H805.512V1269.62ZM805.512 1265.3H808.094C808.499 1265.3 808.846 1265.24 809.136 1265.13C809.426 1265.02 809.647 1264.86 809.801 1264.65C809.958 1264.43 810.037 1264.18 810.037 1263.89C810.037 1263.48 809.865 1263.15 809.52 1262.92C809.174 1262.68 808.699 1262.56 808.094 1262.56H805.512V1265.3ZM817.077 1271.23C816.454 1271.23 815.89 1271.11 815.383 1270.88C814.876 1270.64 814.473 1270.3 814.175 1269.85C813.876 1269.4 813.727 1268.85 813.727 1268.21C813.727 1267.65 813.838 1267.19 814.059 1266.85C814.281 1266.49 814.577 1266.21 814.948 1266.01C815.319 1265.81 815.728 1265.66 816.175 1265.57C816.627 1265.46 817.081 1265.38 817.537 1265.32C818.133 1265.25 818.617 1265.19 818.988 1265.15C819.363 1265.11 819.635 1265.04 819.806 1264.94C819.981 1264.84 820.068 1264.67 820.068 1264.43V1264.38C820.068 1263.75 819.895 1263.26 819.55 1262.91C819.209 1262.56 818.692 1262.38 817.997 1262.38C817.277 1262.38 816.712 1262.54 816.303 1262.86C815.894 1263.17 815.606 1263.51 815.44 1263.87L814.008 1263.36C814.264 1262.76 814.605 1262.29 815.031 1261.96C815.461 1261.62 815.93 1261.39 816.437 1261.26C816.949 1261.12 817.452 1261.05 817.946 1261.05C818.261 1261.05 818.623 1261.09 819.032 1261.17C819.446 1261.24 819.844 1261.39 820.228 1261.62C820.616 1261.85 820.937 1262.2 821.193 1262.66C821.449 1263.13 821.577 1263.75 821.577 1264.53V1271H820.068V1269.67H819.991C819.889 1269.88 819.719 1270.11 819.48 1270.35C819.241 1270.6 818.924 1270.8 818.528 1270.97C818.131 1271.14 817.648 1271.23 817.077 1271.23ZM817.307 1269.88C817.903 1269.88 818.406 1269.76 818.815 1269.52C819.229 1269.29 819.54 1268.99 819.748 1268.62C819.961 1268.25 820.068 1267.86 820.068 1267.45V1266.07C820.004 1266.14 819.863 1266.21 819.646 1266.28C819.433 1266.34 819.186 1266.39 818.905 1266.44C818.628 1266.48 818.357 1266.52 818.093 1266.55C817.833 1266.58 817.622 1266.61 817.46 1266.63C817.068 1266.68 816.702 1266.76 816.361 1266.88C816.024 1266.99 815.751 1267.16 815.542 1267.38C815.338 1267.6 815.236 1267.91 815.236 1268.29C815.236 1268.81 815.43 1269.21 815.817 1269.48C816.209 1269.74 816.706 1269.88 817.307 1269.88ZM830.236 1271V1262.56H827.628C827.04 1262.56 826.578 1262.7 826.241 1262.97C825.904 1263.24 825.736 1263.62 825.736 1264.1C825.736 1264.57 825.887 1264.93 826.19 1265.2C826.497 1265.47 826.917 1265.61 827.449 1265.61H830.62V1267.01H827.449C826.784 1267.01 826.211 1266.89 825.73 1266.66C825.248 1266.43 824.877 1266.09 824.618 1265.66C824.358 1265.22 824.228 1264.7 824.228 1264.1C824.228 1263.49 824.364 1262.97 824.637 1262.54C824.909 1262.1 825.299 1261.77 825.806 1261.53C826.318 1261.3 826.925 1261.18 827.628 1261.18H831.668V1271H830.236ZM823.691 1271L826.478 1266.12H828.114L825.327 1271H823.691ZM839.5 1274.68V1261.18H840.957V1262.74H841.136C841.247 1262.57 841.4 1262.35 841.596 1262.09C841.797 1261.82 842.082 1261.58 842.453 1261.37C842.828 1261.16 843.335 1261.05 843.974 1261.05C844.801 1261.05 845.53 1261.26 846.16 1261.67C846.791 1262.09 847.283 1262.67 847.637 1263.43C847.991 1264.19 848.167 1265.09 848.167 1266.12C848.167 1267.16 847.991 1268.06 847.637 1268.82C847.283 1269.58 846.793 1270.17 846.167 1270.58C845.54 1271 844.818 1271.2 844 1271.2C843.369 1271.2 842.864 1271.1 842.485 1270.89C842.106 1270.68 841.814 1270.44 841.609 1270.17C841.405 1269.9 841.247 1269.67 841.136 1269.49H841.008V1274.68H839.5ZM840.983 1266.09C840.983 1266.83 841.091 1267.49 841.309 1268.05C841.526 1268.62 841.844 1269.06 842.261 1269.38C842.679 1269.69 843.19 1269.85 843.795 1269.85C844.426 1269.85 844.952 1269.68 845.374 1269.35C845.8 1269.01 846.12 1268.56 846.333 1268C846.55 1267.42 846.659 1266.79 846.659 1266.09C846.659 1265.4 846.552 1264.78 846.339 1264.22C846.131 1263.67 845.813 1263.23 845.387 1262.9C844.965 1262.57 844.434 1262.41 843.795 1262.41C843.182 1262.41 842.666 1262.56 842.248 1262.88C841.831 1263.18 841.515 1263.61 841.302 1264.17C841.089 1264.72 840.983 1265.36 840.983 1266.09ZM853.358 1271.23C852.736 1271.23 852.171 1271.11 851.664 1270.88C851.157 1270.64 850.754 1270.3 850.456 1269.85C850.157 1269.4 850.008 1268.85 850.008 1268.21C850.008 1267.65 850.119 1267.19 850.341 1266.85C850.562 1266.49 850.858 1266.21 851.229 1266.01C851.6 1265.81 852.009 1265.66 852.456 1265.57C852.908 1265.46 853.362 1265.38 853.818 1265.32C854.415 1265.25 854.898 1265.19 855.269 1265.15C855.644 1265.11 855.917 1265.04 856.087 1264.94C856.262 1264.84 856.349 1264.67 856.349 1264.43V1264.38C856.349 1263.75 856.177 1263.26 855.831 1262.91C855.491 1262.56 854.973 1262.38 854.278 1262.38C853.558 1262.38 852.993 1262.54 852.584 1262.86C852.175 1263.17 851.888 1263.51 851.721 1263.87L850.29 1263.36C850.545 1262.76 850.886 1262.29 851.312 1261.96C851.743 1261.62 852.211 1261.39 852.719 1261.26C853.23 1261.12 853.733 1261.05 854.227 1261.05C854.542 1261.05 854.905 1261.09 855.314 1261.17C855.727 1261.24 856.126 1261.39 856.509 1261.62C856.897 1261.85 857.219 1262.2 857.474 1262.66C857.73 1263.13 857.858 1263.75 857.858 1264.53V1271H856.349V1269.67H856.273C856.17 1269.88 856 1270.11 855.761 1270.35C855.523 1270.6 855.205 1270.8 854.809 1270.97C854.412 1271.14 853.929 1271.23 853.358 1271.23ZM853.588 1269.88C854.184 1269.88 854.687 1269.76 855.096 1269.52C855.51 1269.29 855.821 1268.99 856.03 1268.62C856.243 1268.25 856.349 1267.86 856.349 1267.45V1266.07C856.285 1266.14 856.145 1266.21 855.927 1266.28C855.714 1266.34 855.467 1266.39 855.186 1266.44C854.909 1266.48 854.638 1266.52 854.374 1266.55C854.114 1266.58 853.903 1266.61 853.741 1266.63C853.349 1266.68 852.983 1266.76 852.642 1266.88C852.305 1266.99 852.032 1267.16 851.824 1267.38C851.619 1267.6 851.517 1267.91 851.517 1268.29C851.517 1268.81 851.711 1269.21 852.099 1269.48C852.491 1269.74 852.987 1269.88 853.588 1269.88ZM867.898 1257.5L868.665 1258.42C868.367 1258.71 868.022 1258.91 867.63 1259.03C867.238 1259.14 866.794 1259.21 866.3 1259.24C865.806 1259.26 865.256 1259.29 864.651 1259.32C863.969 1259.34 863.404 1259.51 862.957 1259.81C862.51 1260.12 862.164 1260.56 861.922 1261.14C861.679 1261.72 861.523 1262.43 861.455 1263.28H861.583C861.915 1262.66 862.375 1262.21 862.963 1261.92C863.551 1261.63 864.182 1261.49 864.855 1261.49C865.623 1261.49 866.313 1261.67 866.926 1262.03C867.54 1262.38 868.026 1262.91 868.384 1263.62C868.742 1264.32 868.921 1265.19 868.921 1266.22C868.921 1267.25 868.738 1268.13 868.371 1268.88C868.009 1269.62 867.5 1270.2 866.843 1270.6C866.191 1271 865.426 1271.2 864.549 1271.2C863.671 1271.2 862.902 1271 862.241 1270.58C861.581 1270.17 861.067 1269.55 860.701 1268.73C860.334 1267.91 860.151 1266.89 860.151 1265.68V1264.63C860.151 1262.45 860.522 1260.79 861.263 1259.66C862.009 1258.53 863.13 1257.95 864.625 1257.91C865.154 1257.89 865.625 1257.89 866.038 1257.9C866.451 1257.9 866.811 1257.89 867.118 1257.84C867.425 1257.79 867.685 1257.68 867.898 1257.5ZM864.549 1269.85C865.141 1269.85 865.65 1269.7 866.076 1269.4C866.507 1269.1 866.837 1268.68 867.067 1268.14C867.297 1267.6 867.412 1266.96 867.412 1266.22C867.412 1265.5 867.295 1264.89 867.061 1264.39C866.831 1263.89 866.5 1263.5 866.07 1263.24C865.64 1262.98 865.124 1262.84 864.523 1262.84C864.084 1262.84 863.69 1262.92 863.341 1263.07C862.991 1263.22 862.693 1263.44 862.446 1263.73C862.199 1264.02 862.007 1264.37 861.87 1264.79C861.738 1265.2 861.668 1265.68 861.659 1266.22C861.659 1267.32 861.917 1268.2 862.433 1268.86C862.949 1269.52 863.654 1269.85 864.549 1269.85ZM875.217 1271.2C874.331 1271.2 873.553 1270.99 872.884 1270.57C872.219 1270.15 871.699 1269.56 871.324 1268.8C870.953 1268.04 870.768 1267.16 870.768 1266.14C870.768 1265.12 870.953 1264.23 871.324 1263.46C871.699 1262.7 872.219 1262.11 872.884 1261.69C873.553 1261.26 874.331 1261.05 875.217 1261.05C876.103 1261.05 876.879 1261.26 877.544 1261.69C878.213 1262.11 878.733 1262.7 879.103 1263.46C879.478 1264.23 879.666 1265.12 879.666 1266.14C879.666 1267.16 879.478 1268.04 879.103 1268.8C878.733 1269.56 878.213 1270.15 877.544 1270.57C876.879 1270.99 876.103 1271.2 875.217 1271.2ZM875.217 1269.85C875.89 1269.85 876.444 1269.68 876.879 1269.33C877.314 1268.99 877.635 1268.53 877.844 1267.97C878.053 1267.41 878.157 1266.8 878.157 1266.14C878.157 1265.49 878.053 1264.87 877.844 1264.31C877.635 1263.74 877.314 1263.28 876.879 1262.93C876.444 1262.58 875.89 1262.41 875.217 1262.41C874.544 1262.41 873.99 1262.58 873.555 1262.93C873.12 1263.28 872.799 1263.74 872.59 1264.31C872.381 1264.87 872.277 1265.49 872.277 1266.14C872.277 1266.8 872.381 1267.41 872.59 1267.97C872.799 1268.53 873.12 1268.99 873.555 1269.33C873.99 1269.68 874.544 1269.85 875.217 1269.85ZM880.685 1262.59V1261.18H888.663V1262.59H885.441V1271H883.933V1262.59H880.685ZM893.243 1271.23C892.62 1271.23 892.056 1271.11 891.549 1270.88C891.042 1270.64 890.639 1270.3 890.341 1269.85C890.042 1269.4 889.893 1268.85 889.893 1268.21C889.893 1267.65 890.004 1267.19 890.225 1266.85C890.447 1266.49 890.743 1266.21 891.114 1266.01C891.485 1265.81 891.894 1265.66 892.341 1265.57C892.793 1265.46 893.247 1265.38 893.703 1265.32C894.299 1265.25 894.783 1265.19 895.154 1265.15C895.529 1265.11 895.801 1265.04 895.972 1264.94C896.147 1264.84 896.234 1264.67 896.234 1264.43V1264.38C896.234 1263.75 896.061 1263.26 895.716 1262.91C895.375 1262.56 894.858 1262.38 894.163 1262.38C893.443 1262.38 892.878 1262.54 892.469 1262.86C892.06 1263.17 891.772 1263.51 891.606 1263.87L890.174 1263.36C890.43 1262.76 890.771 1262.29 891.197 1261.96C891.627 1261.62 892.096 1261.39 892.603 1261.26C893.115 1261.12 893.618 1261.05 894.112 1261.05C894.427 1261.05 894.789 1261.09 895.199 1261.17C895.612 1261.24 896.01 1261.39 896.394 1261.62C896.782 1261.85 897.103 1262.2 897.359 1262.66C897.615 1263.13 897.743 1263.75 897.743 1264.53V1271H896.234V1269.67H896.157C896.055 1269.88 895.885 1270.11 895.646 1270.35C895.407 1270.6 895.09 1270.8 894.694 1270.97C894.297 1271.14 893.814 1271.23 893.243 1271.23ZM893.473 1269.88C894.069 1269.88 894.572 1269.76 894.981 1269.52C895.395 1269.29 895.706 1268.99 895.914 1268.62C896.127 1268.25 896.234 1267.86 896.234 1267.45V1266.07C896.17 1266.14 896.029 1266.21 895.812 1266.28C895.599 1266.34 895.352 1266.39 895.071 1266.44C894.794 1266.48 894.523 1266.52 894.259 1266.55C893.999 1266.58 893.788 1266.61 893.626 1266.63C893.234 1266.68 892.868 1266.76 892.527 1266.88C892.19 1266.99 891.917 1267.16 891.708 1267.38C891.504 1267.6 891.402 1267.91 891.402 1268.29C891.402 1268.81 891.596 1269.21 891.983 1269.48C892.375 1269.74 892.872 1269.88 893.473 1269.88ZM905.763 1257.91H907.655L912.104 1268.78H912.257L916.706 1257.91H918.598V1271H917.115V1261.05H916.987L912.896 1271H911.465L907.374 1261.05H907.246V1271H905.763V1257.91ZM921.061 1259.32V1257.91H930.879V1259.32H926.762V1271H925.177V1259.32H921.061ZM943.315 1262H941.729C941.636 1261.54 941.472 1261.14 941.237 1260.8C941.007 1260.45 940.726 1260.16 940.393 1259.93C940.065 1259.69 939.701 1259.51 939.3 1259.39C938.9 1259.27 938.482 1259.21 938.048 1259.21C937.255 1259.21 936.537 1259.41 935.893 1259.81C935.254 1260.21 934.745 1260.8 934.366 1261.58C933.991 1262.36 933.803 1263.32 933.803 1264.45C933.803 1265.59 933.991 1266.54 934.366 1267.32C934.745 1268.1 935.254 1268.69 935.893 1269.1C936.537 1269.5 937.255 1269.7 938.048 1269.7C938.482 1269.7 938.9 1269.64 939.3 1269.52C939.701 1269.4 940.065 1269.22 940.393 1268.99C940.726 1268.75 941.007 1268.46 941.237 1268.11C941.472 1267.76 941.636 1267.36 941.729 1266.91H943.315C943.195 1267.58 942.978 1268.18 942.663 1268.71C942.347 1269.23 941.955 1269.68 941.487 1270.05C941.018 1270.42 940.491 1270.7 939.908 1270.89C939.328 1271.08 938.708 1271.18 938.048 1271.18C936.931 1271.18 935.938 1270.91 935.069 1270.36C934.2 1269.82 933.516 1269.04 933.017 1268.03C932.518 1267.03 932.269 1265.84 932.269 1264.45C932.269 1263.07 932.518 1261.88 933.017 1260.88C933.516 1259.87 934.2 1259.09 935.069 1258.55C935.938 1258 936.931 1257.73 938.048 1257.73C938.708 1257.73 939.328 1257.83 939.908 1258.02C940.491 1258.21 941.018 1258.49 941.487 1258.86C941.955 1259.23 942.347 1259.68 942.663 1260.2C942.978 1260.73 943.195 1261.33 943.315 1262ZM951.476 1271H949.814L954.621 1257.91H956.257L961.064 1271H959.402L955.49 1259.98H955.388L951.476 1271ZM952.089 1265.89H958.788V1267.29H952.089V1265.89ZM964.688 1257.91V1271H963.103V1257.91H964.688Z" fill="white"/>
<rect width="1440" height="100" fill="#2C3135"/>
<path d="M136.812 43.9091L139.945 49.0291H140.047L143.179 43.9091H145.467L141.389 50.4545L145.493 57H143.192L140.047 51.9503H139.945L136.8 57H134.499L138.673 50.4545L134.524 43.9091H136.812ZM155.845 43.9091H157.826V52.5192C157.826 53.4354 157.611 54.2472 157.181 54.9545C156.75 55.6577 156.145 56.2116 155.365 56.6165C154.586 57.017 153.672 57.2173 152.623 57.2173C151.579 57.2173 150.667 57.017 149.887 56.6165C149.108 56.2116 148.502 55.6577 148.072 54.9545C147.642 54.2472 147.426 53.4354 147.426 52.5192V43.9091H149.402V52.3594C149.402 52.9517 149.532 53.478 149.792 53.9382C150.056 54.3984 150.429 54.7607 150.91 55.0249C151.392 55.2848 151.963 55.4148 152.623 55.4148C153.288 55.4148 153.861 55.2848 154.343 55.0249C154.828 54.7607 155.199 54.3984 155.455 53.9382C155.715 53.478 155.845 52.9517 155.845 52.3594V43.9091ZM162.673 43.9091V57H160.698V43.9091H162.673ZM165.55 57V43.9091H170.344C171.273 43.9091 172.042 44.0625 172.651 44.3693C173.26 44.6719 173.716 45.0831 174.019 45.603C174.322 46.1186 174.473 46.7003 174.473 47.348C174.473 47.8935 174.373 48.3537 174.172 48.7287C173.972 49.0994 173.704 49.3977 173.367 49.6236C173.035 49.8452 172.668 50.0071 172.268 50.1094V50.2372C172.702 50.2585 173.126 50.3991 173.54 50.6591C173.957 50.9148 174.302 51.2791 174.575 51.7521C174.848 52.2251 174.984 52.8004 174.984 53.478C174.984 54.147 174.827 54.7479 174.511 55.2805C174.2 55.8089 173.719 56.2287 173.067 56.5398C172.415 56.8466 171.581 57 170.567 57H165.55ZM167.525 55.3061H170.376C171.322 55.3061 171.999 55.1229 172.408 54.7564C172.817 54.3899 173.022 53.9318 173.022 53.3821C173.022 52.9687 172.917 52.5895 172.709 52.2443C172.5 51.8991 172.202 51.6243 171.814 51.4197C171.43 51.2152 170.974 51.1129 170.446 51.1129H167.525V55.3061ZM167.525 49.5724H170.171C170.614 49.5724 171.013 49.4872 171.366 49.3168C171.724 49.1463 172.008 48.9077 172.216 48.6009C172.43 48.2898 172.536 47.9233 172.536 47.5014C172.536 46.9602 172.346 46.5064 171.967 46.1399C171.588 45.7734 171.006 45.5902 170.222 45.5902H167.525V49.5724ZM188.698 50.4545C188.698 51.8523 188.443 53.054 187.931 54.0597C187.42 55.0611 186.719 55.8324 185.828 56.3736C184.942 56.9105 183.934 57.179 182.805 57.179C181.671 57.179 180.659 56.9105 179.769 56.3736C178.882 55.8324 178.183 55.0589 177.672 54.0533C177.161 53.0476 176.905 51.848 176.905 50.4545C176.905 49.0568 177.161 47.8572 177.672 46.8558C178.183 45.8501 178.882 45.0788 179.769 44.5419C180.659 44.0007 181.671 43.7301 182.805 43.7301C183.934 43.7301 184.942 44.0007 185.828 44.5419C186.719 45.0788 187.42 45.8501 187.931 46.8558C188.443 47.8572 188.698 49.0568 188.698 50.4545ZM186.742 50.4545C186.742 49.3892 186.57 48.4922 186.225 47.7635C185.884 47.0305 185.415 46.4766 184.818 46.1016C184.226 45.7223 183.555 45.5327 182.805 45.5327C182.051 45.5327 181.377 45.7223 180.785 46.1016C180.193 46.4766 179.724 47.0305 179.379 47.7635C179.038 48.4922 178.867 49.3892 178.867 50.4545C178.867 51.5199 179.038 52.419 179.379 53.152C179.724 53.8807 180.193 54.4347 180.785 54.8139C181.377 55.1889 182.051 55.3764 182.805 55.3764C183.555 55.3764 184.226 55.1889 184.818 54.8139C185.415 54.4347 185.884 53.8807 186.225 53.152C186.57 52.419 186.742 51.5199 186.742 50.4545ZM189.953 45.6094V43.9091H200.084V45.6094H196V57H194.031V45.6094H189.953Z" fill="white"/>
<g clip-path="url(#clip1_1_114)">
<mask id="mask0_1_114" style="mask-type:luminance" maskUnits="userSpaceOnUse" x="76" y="28" width="44" height="44">
<path d="M120 28H76V72H120V28Z" fill="white"/>
</mask>
<g mask="url(#mask0_1_114)">
<path d="M120 28H76V72H120V28Z" fill="#FF0032"/>
<path d="M105.312 31.3839V33.4089H109.74V41.5357H112.215V33.4089H116.634V31.3839H105.312Z" fill="white"/>
<path d="M89.3916 31.3839L86.1516 38.0978L82.9207 31.3839H79.3838V41.5357H81.8677V34.2729L85.0267 40.4107H87.2856L90.4445 34.2729V41.5357H92.9195V31.3839H89.3916Z" fill="white"/>
<path d="M114.159 65.2321C114.096 65.6371 113.934 65.9701 113.673 66.2221C113.43 66.4561 113.097 66.6271 112.683 66.7261C112.278 66.8161 111.675 66.8701 111.045 66.8701C110.388 66.8701 109.812 66.7891 109.317 66.6181C108.84 66.4561 108.462 66.1681 108.201 65.7721C107.931 65.3761 107.796 64.8002 107.796 64.0532V63.0182C107.796 62.2802 107.931 61.7042 108.201 61.2992C108.471 60.9032 108.84 60.6153 109.317 60.4533C109.803 60.2823 110.388 60.2013 111.045 60.2013C111.675 60.2013 112.278 60.2553 112.683 60.3453C113.097 60.4443 113.43 60.6062 113.673 60.8492C113.934 61.1012 114.096 61.4342 114.159 61.8392H116.633C116.561 61.0022 116.283 60.2913 115.788 59.7153C115.338 59.1933 114.708 58.8153 113.925 58.5813C113.169 58.3563 112.17 58.2393 111.045 58.2393C109.857 58.2393 108.831 58.4103 107.985 58.7433C107.13 59.0853 106.464 59.6523 106.005 60.4353C105.564 61.1822 105.339 62.1902 105.321 63.4142V63.5312L105.456 63.5402L105.321 63.5492V63.5582V63.6662C105.339 64.8902 105.564 65.8981 106.005 66.6451C106.464 67.4281 107.13 67.9951 107.985 68.3371C108.831 68.6701 109.857 68.8411 111.045 68.8411C112.17 68.8411 113.169 68.7241 113.925 68.4991C114.708 68.2651 115.329 67.8871 115.788 67.3651C116.283 66.7981 116.57 66.0781 116.633 65.2411H114.159V65.2321Z" fill="white"/>
</g>
</g>
<g clip-path="url(#clip2_1_114)">
<path d="M1384 50C1384 37.8497 1374.15 28 1362 28C1349.85 28 1340 37.8497 1340 50C1340 62.1503 1349.85 72 1362 72C1374.15 72 1384 62.1503 1384 50Z" fill="#FF0032"/>
<mask id="mask1_1_114" style="mask-type:luminance" maskUnits="userSpaceOnUse" x="1350" y="38" width="24" height="24">
<path d="M1373.73 38.2666H1350.27V61.7333H1373.73V38.2666Z" fill="white"/>
</mask>
<g mask="url(#mask1_1_114)">
<path d="M1362 44.866C1360.18 44.866 1358.7 46.3437 1358.7 48.1666C1358.7 49.9895 1360.18 51.4673 1362 51.4673C1363.82 51.4673 1365.3 49.9895 1365.3 48.1666C1365.3 46.3437 1363.82 44.866 1362 44.866Z" fill="white"/>
<path fill-rule="evenodd" clip-rule="evenodd" d="M1353.28 47.9689C1353.47 45.4111 1353.56 44.1322 1354.85 42.8485C1356.13 41.5648 1357.41 41.4696 1359.97 41.2792C1360.63 41.2299 1361.32 41.2 1362 41.2C1362.68 41.2 1363.37 41.2299 1364.03 41.2792C1366.59 41.4696 1367.87 41.5648 1369.15 42.8485C1370.44 44.1322 1370.53 45.4111 1370.72 47.9689C1370.77 48.632 1370.8 49.316 1370.8 50C1370.8 50.6839 1370.77 51.3679 1370.72 52.031C1370.53 54.5888 1370.44 55.8677 1369.15 57.1514C1367.87 58.4351 1366.59 58.5303 1364.03 58.7207C1363.37 58.77 1362.68 58.8 1362 58.8C1361.32 58.8 1360.63 58.77 1359.97 58.7207C1357.41 58.5303 1356.13 58.4351 1354.85 57.1514C1353.56 55.8677 1353.47 54.5888 1353.28 52.031C1353.23 51.3679 1353.2 50.6839 1353.2 50C1353.2 49.316 1353.23 48.632 1353.28 47.9689ZM1360.11 43.1075C1360.73 43.0609 1361.37 43.0333 1362 43.0333C1362.63 43.0333 1363.27 43.0609 1363.9 43.1075C1366.58 43.307 1367.13 43.4172 1367.86 44.1448C1368.58 44.8724 1368.69 45.424 1368.89 48.105C1368.94 48.7305 1368.97 49.3685 1368.97 50C1368.97 50.6314 1368.94 51.2694 1368.89 51.8949C1368.82 52.8813 1368.76 53.5795 1368.67 54.1042C1365.87 53.3947 1364.36 53.0307 1362.83 52.954C1362.55 52.9402 1362.28 52.9333 1362 52.9333C1361.72 52.9333 1361.45 52.9401 1361.17 52.9539C1359.64 53.0303 1358.13 53.3945 1355.33 54.1043C1355.24 53.5796 1355.18 52.8814 1355.11 51.8949C1355.06 51.2694 1355.03 50.6314 1355.03 50C1355.03 49.3685 1355.06 48.7305 1355.11 48.105C1355.31 45.424 1355.42 44.8724 1356.14 44.1448C1356.87 43.4172 1357.42 43.307 1360.11 43.1075Z" fill="white"/>
</g>
</g>
<rect x="77" y="150" width="1308" height="64" rx="6" fill="#151618"/>
<rect x="104" y="162" width="40" height="40" rx="8" fill="#FF0032"/>
<path d="M130.018 180.94L123.629 180.229V174.917C123.629 174.447 123.442 173.997 123.11 173.665C122.779 173.332 122.328 173.146 121.859 173.146C121.39 173.146 120.94 173.332 120.608 173.665C120.276 173.997 120.089 174.447 120.089 174.917V185.542L117.407 184.469C117.183 184.379 116.944 184.336 116.702 184.343C116.461 184.349 116.224 184.405 116.005 184.507C115.787 184.608 115.591 184.753 115.43 184.933C115.27 185.113 115.148 185.324 115.071 185.553L114.971 185.854C114.915 186.023 114.911 186.205 114.96 186.376C115.008 186.548 115.108 186.7 115.245 186.814L119.843 190.65C120.002 190.782 120.203 190.854 120.41 190.854H129.823C130.292 190.854 130.742 190.668 131.074 190.336C131.406 190.003 131.593 189.553 131.593 189.083V182.7C131.592 182.264 131.432 181.844 131.141 181.519C130.851 181.194 130.451 180.988 130.018 180.94Z" fill="white"/>
<path d="M127.578 176.944C127.782 176.741 128.112 176.741 128.315 176.944L128.988 177.618L128.988 172.841L128.315 173.514C128.112 173.718 127.782 173.718 127.578 173.514C127.375 173.311 127.375 172.981 127.578 172.778L129.141 171.215C129.193 171.163 129.253 171.125 129.317 171.099C129.375 171.076 129.439 171.063 129.506 171.063L129.509 171.062C129.583 171.063 129.654 171.078 129.717 171.106C129.765 171.127 129.81 171.155 129.852 171.191C129.861 171.199 129.871 171.208 129.88 171.218L131.44 172.778C131.643 172.981 131.643 173.311 131.44 173.514C131.237 173.718 130.907 173.718 130.703 173.514L130.03 172.841L130.03 177.618L130.703 176.944C130.907 176.741 131.237 176.741 131.44 176.944C131.643 177.148 131.643 177.477 131.44 177.681L129.877 179.243C129.825 179.296 129.764 179.334 129.7 179.36C129.642 179.383 129.578 179.395 129.512 179.396L129.509 179.396L129.506 179.396C129.433 179.395 129.364 179.38 129.301 179.353C129.253 179.332 129.208 179.303 129.167 179.268C129.157 179.259 129.147 179.25 129.138 179.241L127.578 177.681C127.375 177.477 127.375 177.148 127.578 176.944Z" fill="white" fill-opacity="0.7"/>
<g filter="url(#filter0_b_1_114)">
<rect x="470" y="162" width="104" height="40" rx="8" fill="#7F8C99" fill-opacity="0.35"/>
<rect x="470" y="162" width="104" height="40" rx="8" stroke="#1F2024" stroke-width="1.5" stroke-linecap="round" stroke-linejoin="round"/>
<path d="M500.155 187V188.055H494.018V187H500.155ZM506.259 187V188.055H500.122V187H506.259ZM512.804 179.636C512.746 179.151 512.513 178.773 512.104 178.505C511.695 178.237 511.193 178.102 510.599 178.102C510.164 178.102 509.784 178.173 509.458 178.313C509.135 178.454 508.882 178.647 508.7 178.893C508.521 179.139 508.432 179.419 508.432 179.732C508.432 179.994 508.494 180.22 508.619 180.408C508.746 180.594 508.909 180.749 509.108 180.873C509.306 180.995 509.514 181.095 509.731 181.175C509.948 181.252 510.148 181.314 510.33 181.362L511.327 181.631C511.583 181.698 511.867 181.79 512.181 181.909C512.497 182.027 512.799 182.188 513.087 182.393C513.378 182.594 513.617 182.853 513.806 183.17C513.994 183.486 514.089 183.874 514.089 184.335C514.089 184.865 513.95 185.344 513.672 185.773C513.397 186.201 512.994 186.541 512.463 186.794C511.936 187.046 511.295 187.173 510.541 187.173C509.838 187.173 509.229 187.059 508.715 186.832C508.203 186.605 507.8 186.289 507.506 185.883C507.216 185.477 507.051 185.006 507.013 184.469H508.24C508.272 184.839 508.397 185.146 508.614 185.389C508.834 185.629 509.112 185.808 509.448 185.926C509.787 186.041 510.151 186.099 510.541 186.099C510.995 186.099 511.402 186.025 511.764 185.878C512.125 185.728 512.411 185.52 512.622 185.255C512.833 184.987 512.938 184.673 512.938 184.315C512.938 183.989 512.847 183.724 512.665 183.52C512.483 183.315 512.243 183.149 511.946 183.021C511.648 182.893 511.327 182.781 510.982 182.685L509.774 182.34C509.007 182.12 508.4 181.805 507.952 181.396C507.505 180.987 507.281 180.451 507.281 179.79C507.281 179.24 507.43 178.761 507.727 178.352C508.027 177.939 508.43 177.62 508.935 177.393C509.443 177.163 510.011 177.048 510.637 177.048C511.27 177.048 511.832 177.161 512.324 177.388C512.817 177.612 513.207 177.919 513.494 178.308C513.785 178.698 513.938 179.141 513.954 179.636H512.804ZM519.092 179.636V180.595H515.276V179.636H519.092ZM516.389 177.872H517.52V184.891C517.52 185.21 517.566 185.45 517.659 185.61C517.755 185.766 517.876 185.872 518.023 185.926C518.174 185.977 518.332 186.003 518.498 186.003C518.623 186.003 518.725 185.996 518.805 185.984C518.885 185.968 518.949 185.955 518.997 185.945L519.227 186.962C519.15 186.99 519.043 187.019 518.905 187.048C518.768 187.08 518.594 187.096 518.383 187.096C518.063 187.096 517.75 187.027 517.443 186.89C517.14 186.752 516.887 186.543 516.686 186.262C516.488 185.98 516.389 185.626 516.389 185.197V177.872ZM522.961 187.173C522.495 187.173 522.071 187.085 521.691 186.909C521.31 186.73 521.008 186.473 520.785 186.137C520.561 185.798 520.449 185.389 520.449 184.91C520.449 184.488 520.532 184.146 520.698 183.884C520.865 183.619 521.087 183.411 521.365 183.261C521.643 183.11 521.95 182.999 522.285 182.925C522.624 182.848 522.964 182.788 523.306 182.743C523.754 182.685 524.117 182.642 524.395 182.613C524.676 182.581 524.88 182.529 525.008 182.455C525.139 182.382 525.205 182.254 525.205 182.072V182.033C525.205 181.56 525.075 181.193 524.816 180.931C524.561 180.669 524.172 180.538 523.652 180.538C523.111 180.538 522.688 180.656 522.381 180.892C522.074 181.129 521.859 181.381 521.734 181.65L520.66 181.266C520.852 180.819 521.108 180.471 521.427 180.221C521.75 179.969 522.101 179.793 522.482 179.694C522.865 179.592 523.242 179.54 523.613 179.54C523.85 179.54 524.121 179.569 524.428 179.627C524.738 179.681 525.037 179.795 525.325 179.967C525.616 180.14 525.857 180.4 526.049 180.749C526.24 181.097 526.336 181.564 526.336 182.148V187H525.205V186.003H525.147C525.071 186.163 524.943 186.334 524.764 186.516C524.585 186.698 524.347 186.853 524.049 186.981C523.752 187.109 523.389 187.173 522.961 187.173ZM523.134 186.156C523.581 186.156 523.958 186.068 524.265 185.893C524.575 185.717 524.809 185.49 524.965 185.212C525.125 184.934 525.205 184.641 525.205 184.335V183.299C525.157 183.357 525.051 183.409 524.888 183.457C524.729 183.502 524.543 183.542 524.332 183.577C524.125 183.609 523.922 183.638 523.723 183.663C523.528 183.686 523.37 183.705 523.249 183.721C522.955 183.759 522.68 183.822 522.424 183.908C522.172 183.991 521.967 184.117 521.811 184.287C521.657 184.453 521.581 184.68 521.581 184.967C521.581 185.36 521.726 185.658 522.017 185.859C522.311 186.057 522.683 186.156 523.134 186.156ZM528.401 187V179.636H529.494V180.749H529.571C529.705 180.384 529.948 180.089 530.3 179.862C530.651 179.635 531.048 179.521 531.489 179.521C531.572 179.521 531.676 179.523 531.8 179.526C531.925 179.529 532.019 179.534 532.083 179.54V180.691C532.045 180.681 531.957 180.667 531.819 180.648C531.685 180.626 531.543 180.614 531.393 180.614C531.035 180.614 530.715 180.689 530.434 180.84C530.156 180.987 529.935 181.191 529.772 181.453C529.613 181.712 529.533 182.008 529.533 182.34V187H528.401ZM537.088 179.636V180.595H533.272V179.636H537.088ZM534.384 177.872H535.516V184.891C535.516 185.21 535.562 185.45 535.655 185.61C535.75 185.766 535.872 185.872 536.019 185.926C536.169 185.977 536.327 186.003 536.494 186.003C536.618 186.003 536.72 185.996 536.8 185.984C536.88 185.968 536.944 185.955 536.992 185.945L537.222 186.962C537.146 186.99 537.038 187.019 536.901 187.048C536.764 187.08 536.589 187.096 536.379 187.096C536.059 187.096 535.746 187.027 535.439 186.89C535.135 186.752 534.883 186.543 534.681 186.262C534.483 185.98 534.384 185.626 534.384 185.197V177.872ZM543.872 187V188.055H537.735V187H543.872ZM549.976 187V188.055H543.839V187H549.976Z" fill="white"/>
</g>
<g filter="url(#filter1_b_1_114)">
<rect x="894" y="162" width="98" height="40" rx="8" fill="#7F8C99" fill-opacity="0.35"/>
<rect x="894" y="162" width="98" height="40" rx="8" stroke="#1F2024" stroke-width="1.5" stroke-linecap="round" stroke-linejoin="round"/>
<path d="M924.503 187V188.055H918.367V187H924.503ZM930.607 187V188.055H924.471V187H930.607ZM931.783 187V177.182H937.709V178.237H932.972V181.554H937.402V182.609H932.972V185.945H937.785V187H931.783ZM940.83 182.57V187H939.698V179.636H940.791V180.787H940.887C941.06 180.413 941.322 180.113 941.673 179.886C942.025 179.656 942.479 179.54 943.035 179.54C943.533 179.54 943.97 179.643 944.344 179.847C944.717 180.049 945.008 180.355 945.216 180.768C945.424 181.177 945.528 181.695 945.528 182.321V187H944.396V182.398C944.396 181.819 944.246 181.369 943.946 181.046C943.645 180.72 943.233 180.557 942.709 180.557C942.348 180.557 942.025 180.635 941.74 180.792C941.459 180.948 941.237 181.177 941.074 181.477C940.911 181.778 940.83 182.142 940.83 182.57ZM950.376 187.153C949.762 187.153 949.22 186.998 948.75 186.688C948.281 186.375 947.913 185.934 947.648 185.365C947.383 184.793 947.25 184.117 947.25 183.337C947.25 182.564 947.383 181.893 947.648 181.324C947.913 180.755 948.282 180.316 948.755 180.006C949.228 179.695 949.775 179.54 950.395 179.54C950.874 179.54 951.253 179.62 951.531 179.78C951.812 179.937 952.026 180.116 952.173 180.317C952.324 180.515 952.44 180.678 952.523 180.806H952.619V177.182H953.751V187H952.658V185.869H952.523C952.44 186.003 952.322 186.172 952.169 186.377C952.015 186.578 951.796 186.759 951.512 186.919C951.227 187.075 950.849 187.153 950.376 187.153ZM950.529 186.137C950.983 186.137 951.366 186.019 951.68 185.782C951.993 185.543 952.231 185.212 952.394 184.79C952.557 184.365 952.638 183.874 952.638 183.318C952.638 182.768 952.559 182.287 952.399 181.875C952.239 181.46 952.002 181.137 951.689 180.907C951.376 180.673 950.989 180.557 950.529 180.557C950.05 180.557 949.65 180.68 949.331 180.926C949.014 181.169 948.776 181.5 948.616 181.918C948.46 182.334 948.381 182.8 948.381 183.318C948.381 183.842 948.461 184.319 948.621 184.747C948.784 185.172 949.024 185.511 949.34 185.763C949.66 186.012 950.056 186.137 950.529 186.137ZM961.523 187V188.055H955.387V187H961.523ZM967.627 187V188.055H961.491V187H967.627Z" fill="white"/>
</g>
<g filter="url(#filter2_b_1_114)">
<rect x="622" y="162" width="87" height="40" rx="8" fill="#7F8C99" fill-opacity="0.35"/>
<rect x="622" y="162" width="87" height="40" rx="8" stroke="#1F2024" stroke-width="1.5" stroke-linecap="round" stroke-linejoin="round"/>
<path d="M648.087 187H646.841L650.446 177.182H651.673L655.279 187H654.032L651.098 178.735H651.021L648.087 187ZM648.548 183.165H653.572V184.219H648.548V183.165ZM659.627 189.915C659.08 189.915 658.61 189.844 658.217 189.704C657.824 189.566 657.497 189.384 657.234 189.157C656.976 188.934 656.769 188.694 656.616 188.438L657.517 187.805C657.62 187.94 657.749 188.093 657.906 188.266C658.062 188.441 658.276 188.593 658.548 188.721C658.823 188.852 659.182 188.918 659.627 188.918C660.221 188.918 660.712 188.774 661.098 188.486C661.485 188.199 661.679 187.748 661.679 187.134V185.638H661.583C661.5 185.773 661.381 185.939 661.228 186.137C661.078 186.332 660.86 186.506 660.576 186.66C660.295 186.81 659.914 186.885 659.435 186.885C658.84 186.885 658.307 186.744 657.834 186.463C657.364 186.182 656.992 185.773 656.717 185.236C656.445 184.699 656.309 184.047 656.309 183.28C656.309 182.526 656.442 181.869 656.707 181.309C656.972 180.747 657.342 180.312 657.815 180.006C658.288 179.695 658.834 179.54 659.454 179.54C659.934 179.54 660.314 179.62 660.595 179.78C660.88 179.937 661.097 180.116 661.247 180.317C661.401 180.515 661.519 180.678 661.602 180.806H661.717V179.636H662.81V187.211C662.81 187.844 662.666 188.358 662.378 188.755C662.094 189.154 661.711 189.447 661.228 189.632C660.749 189.82 660.215 189.915 659.627 189.915ZM659.588 185.869C660.042 185.869 660.426 185.765 660.739 185.557C661.052 185.349 661.29 185.05 661.453 184.661C661.616 184.271 661.698 183.804 661.698 183.261C661.698 182.73 661.618 182.262 661.458 181.856C661.298 181.45 661.062 181.132 660.749 180.902C660.435 180.672 660.049 180.557 659.588 180.557C659.109 180.557 658.709 180.678 658.39 180.921C658.073 181.164 657.835 181.49 657.676 181.899C657.519 182.308 657.441 182.762 657.441 183.261C657.441 183.772 657.521 184.224 657.68 184.617C657.843 185.007 658.083 185.314 658.399 185.538C658.719 185.758 659.115 185.869 659.588 185.869ZM667.968 187.153C667.259 187.153 666.647 186.997 666.132 186.684C665.621 186.367 665.226 185.926 664.948 185.36C664.673 184.792 664.536 184.13 664.536 183.376C664.536 182.621 664.673 181.957 664.948 181.381C665.226 180.803 665.613 180.352 666.108 180.029C666.607 179.703 667.188 179.54 667.853 179.54C668.237 179.54 668.616 179.604 668.989 179.732C669.363 179.86 669.704 180.068 670.011 180.355C670.317 180.64 670.562 181.017 670.744 181.487C670.926 181.957 671.017 182.535 671.017 183.222V183.702H665.341V182.724H669.867C669.867 182.308 669.784 181.937 669.617 181.612C669.454 181.286 669.221 181.028 668.918 180.84C668.617 180.651 668.262 180.557 667.853 180.557C667.403 180.557 667.013 180.669 666.684 180.892C666.358 181.113 666.107 181.401 665.931 181.755C665.755 182.11 665.667 182.49 665.667 182.896V183.548C665.667 184.104 665.763 184.576 665.955 184.963C666.15 185.346 666.42 185.638 666.765 185.84C667.11 186.038 667.511 186.137 667.968 186.137C668.266 186.137 668.534 186.096 668.774 186.012C669.017 185.926 669.226 185.798 669.402 185.629C669.578 185.456 669.713 185.242 669.809 184.987L670.902 185.293C670.787 185.664 670.594 185.99 670.322 186.271C670.051 186.549 669.715 186.767 669.315 186.923C668.916 187.077 668.467 187.153 667.968 187.153ZM673.87 182.57V187H672.738V179.636H673.831V180.787H673.927C674.1 180.413 674.362 180.113 674.714 179.886C675.065 179.656 675.519 179.54 676.075 179.54C676.574 179.54 677.01 179.643 677.384 179.847C677.758 180.049 678.049 180.355 678.256 180.768C678.464 181.177 678.568 181.695 678.568 182.321V187H677.437V182.398C677.437 181.819 677.286 181.369 676.986 181.046C676.685 180.72 676.273 180.557 675.749 180.557C675.388 180.557 675.065 180.635 674.781 180.792C674.499 180.948 674.277 181.177 674.114 181.477C673.951 181.778 673.87 182.142 673.87 182.57ZM683.838 179.636V180.595H680.022V179.636H683.838ZM681.134 177.872H682.265V184.891C682.265 185.21 682.312 185.45 682.404 185.61C682.5 185.766 682.622 185.872 682.769 185.926C682.919 185.977 683.077 186.003 683.243 186.003C683.368 186.003 683.47 185.996 683.55 185.984C683.63 185.968 683.694 185.955 683.742 185.945L683.972 186.962C683.895 186.99 683.788 187.019 683.651 187.048C683.513 187.08 683.339 187.096 683.128 187.096C682.809 187.096 682.495 187.027 682.189 186.89C681.885 186.752 681.633 186.543 681.431 186.262C681.233 185.98 681.134 185.626 681.134 185.197V177.872Z" fill="white"/>
</g>
<g filter="url(#filter3_b_1_114)">
<rect x="757" y="162" width="89" height="40" rx="8" fill="#7F8C99" fill-opacity="0.35"/>
<rect x="757" y="162" width="89" height="40" rx="8" stroke="#1F2024" stroke-width="1.5" stroke-linecap="round" stroke-linejoin="round"/>
<path d="M782.73 187H781.483L785.088 177.182H786.315L789.921 187H788.674L785.74 178.735H785.664L782.73 187ZM783.19 183.165H788.214V184.219H783.19V183.165ZM794.288 187.153C793.598 187.153 793.003 186.99 792.505 186.664C792.006 186.338 791.622 185.889 791.354 185.317C791.086 184.745 790.951 184.092 790.951 183.357C790.951 182.609 791.089 181.949 791.364 181.377C791.642 180.801 792.028 180.352 792.524 180.029C793.022 179.703 793.604 179.54 794.269 179.54C794.787 179.54 795.253 179.636 795.669 179.828C796.084 180.02 796.425 180.288 796.69 180.634C796.955 180.979 797.12 181.381 797.184 181.842H796.052C795.966 181.506 795.774 181.209 795.477 180.95C795.183 180.688 794.787 180.557 794.288 180.557C793.847 180.557 793.46 180.672 793.128 180.902C792.799 181.129 792.541 181.45 792.356 181.866C792.174 182.278 792.083 182.762 792.083 183.318C792.083 183.887 792.172 184.382 792.351 184.804C792.533 185.226 792.789 185.554 793.118 185.787C793.451 186.02 793.841 186.137 794.288 186.137C794.582 186.137 794.849 186.086 795.089 185.984C795.328 185.881 795.531 185.734 795.697 185.543C795.864 185.351 795.982 185.121 796.052 184.852H797.184C797.12 185.287 796.961 185.678 796.709 186.027C796.46 186.372 796.129 186.647 795.717 186.851C795.308 187.053 794.831 187.153 794.288 187.153ZM802.04 179.636V180.595H798.224V179.636H802.04ZM799.336 177.872H800.467V184.891C800.467 185.21 800.514 185.45 800.607 185.61C800.702 185.766 800.824 185.872 800.971 185.926C801.121 185.977 801.279 186.003 801.445 186.003C801.57 186.003 801.672 185.996 801.752 185.984C801.832 185.968 801.896 185.955 801.944 185.945L802.174 186.962C802.097 186.99 801.99 187.019 801.853 187.048C801.716 187.08 801.541 187.096 801.33 187.096C801.011 187.096 800.698 187.027 800.391 186.89C800.087 186.752 799.835 186.543 799.633 186.262C799.435 185.98 799.336 185.626 799.336 185.197V177.872ZM803.742 187V179.636H804.873V187H803.742ZM804.317 178.409C804.097 178.409 803.906 178.334 803.747 178.184C803.59 178.034 803.512 177.853 803.512 177.642C803.512 177.431 803.59 177.251 803.747 177.1C803.906 176.95 804.097 176.875 804.317 176.875C804.538 176.875 804.726 176.95 804.883 177.1C805.043 177.251 805.122 177.431 805.122 177.642C805.122 177.853 805.043 178.034 804.883 178.184C804.726 178.334 804.538 178.409 804.317 178.409ZM809.937 187.153C809.272 187.153 808.689 186.995 808.187 186.679C807.688 186.362 807.299 185.92 807.017 185.351C806.739 184.782 806.6 184.117 806.6 183.357C806.6 182.589 806.739 181.92 807.017 181.348C807.299 180.776 807.688 180.331 808.187 180.015C808.689 179.699 809.272 179.54 809.937 179.54C810.602 179.54 811.183 179.699 811.682 180.015C812.184 180.331 812.574 180.776 812.852 181.348C813.133 181.92 813.274 182.589 813.274 183.357C813.274 184.117 813.133 184.782 812.852 185.351C812.574 185.92 812.184 186.362 811.682 186.679C811.183 186.995 810.602 187.153 809.937 187.153ZM809.937 186.137C810.442 186.137 810.857 186.008 811.183 185.749C811.509 185.49 811.751 185.15 811.907 184.728C812.064 184.306 812.142 183.849 812.142 183.357C812.142 182.864 812.064 182.406 811.907 181.981C811.751 181.556 811.509 181.212 811.183 180.95C810.857 180.688 810.442 180.557 809.937 180.557C809.432 180.557 809.016 180.688 808.69 180.95C808.364 181.212 808.123 181.556 807.967 181.981C807.81 182.406 807.732 182.864 807.732 183.357C807.732 183.849 807.81 184.306 807.967 184.728C808.123 185.15 808.364 185.49 808.69 185.749C809.016 186.008 809.432 186.137 809.937 186.137ZM816.132 182.57V187H815.001V179.636H816.094V180.787H816.19C816.362 180.413 816.624 180.113 816.976 179.886C817.327 179.656 817.781 179.54 818.337 179.54C818.836 179.54 819.272 179.643 819.646 179.847C820.02 180.049 820.311 180.355 820.519 180.768C820.726 181.177 820.83 181.695 820.83 182.321V187H819.699V182.398C819.699 181.819 819.549 181.369 819.248 181.046C818.948 180.72 818.535 180.557 818.011 180.557C817.65 180.557 817.327 180.635 817.043 180.792C816.762 180.948 816.539 181.177 816.376 181.477C816.213 181.778 816.132 182.142 816.132 182.57Z" fill="white"/>
</g>
<g clip-path="url(#clip3_1_114)">
<g clip-path="url(#clip4_1_114)">
<path d="M-900.997 -1731.79C-900.999 -1734 -899.209 -1735.79 -897 -1735.79L4087.08 -1739C4089.29 -1739 4091.08 -1737.21 4091.08 -1735L4093.79 2479.2C4093.79 2481.41 4092 2483.2 4089.8 2483.2L-894.286 2486.41C-896.495 2486.41 -898.287 2484.62 -898.288 2482.41L-900.997 -1731.79Z" fill="url(#paint0_linear_1_114)"/>
<path d="M-900.997 -1731.79C-900.999 -1734 -899.209 -1735.79 -897 -1735.79L4087.08 -1739C4089.29 -1739 4091.08 -1737.21 4091.08 -1735L4093.79 2479.2C4093.79 2481.41 4092 2483.2 4089.8 2483.2L-894.286 2486.41C-896.495 2486.41 -898.287 2484.62 -898.288 2482.41L-900.997 -1731.79Z" fill="url(#paint1_linear_1_114)"/>
<path d="M77 269C77 266.791 78.7909 265 81 265H1371C1373.21 265 1375 266.791 1375 269V1159C1375 1161.21 1373.21 1163 1371 1163H81C78.7909 1163 77 1161.21 77 1159V269Z" fill="#1D2023"/>
<rect x="662.5" y="528.5" width="127" height="69" rx="4.5" stroke="url(#paint2_linear_1_114)" stroke-opacity="0.1" stroke-linecap="round" stroke-dasharray="9 9"/>
<g filter="url(#filter4_b_1_114)">
<rect x="682.5" y="543" width="87" height="40" rx="8" fill="#7F8C99" fill-opacity="0.35"/>
<rect x="682.5" y="543" width="87" height="40" rx="8" stroke="#1F2024" stroke-width="1.5" stroke-linecap="round" stroke-linejoin="round"/>
<path d="M708.587 568H707.341L710.946 558.182H712.173L715.779 568H714.532L711.598 559.735H711.521L708.587 568ZM709.048 564.165H714.072V565.219H709.048V564.165ZM720.127 570.915C719.58 570.915 719.11 570.844 718.717 570.704C718.324 570.566 717.997 570.384 717.734 570.157C717.476 569.934 717.269 569.694 717.116 569.438L718.017 568.805C718.12 568.94 718.249 569.093 718.406 569.266C718.562 569.441 718.776 569.593 719.048 569.721C719.323 569.852 719.682 569.918 720.127 569.918C720.721 569.918 721.212 569.774 721.598 569.486C721.985 569.199 722.179 568.748 722.179 568.134V566.638H722.083C722 566.773 721.881 566.939 721.728 567.137C721.578 567.332 721.36 567.506 721.076 567.66C720.795 567.81 720.414 567.885 719.935 567.885C719.34 567.885 718.807 567.744 718.334 567.463C717.864 567.182 717.492 566.773 717.217 566.236C716.945 565.699 716.809 565.047 716.809 564.28C716.809 563.526 716.942 562.869 717.207 562.309C717.472 561.747 717.842 561.312 718.315 561.006C718.788 560.695 719.334 560.54 719.954 560.54C720.434 560.54 720.814 560.62 721.095 560.78C721.38 560.937 721.597 561.116 721.747 561.317C721.901 561.515 722.019 561.678 722.102 561.806H722.217V560.636H723.31V568.211C723.31 568.844 723.166 569.358 722.878 569.755C722.594 570.154 722.211 570.447 721.728 570.632C721.249 570.82 720.715 570.915 720.127 570.915ZM720.088 566.869C720.542 566.869 720.926 566.765 721.239 566.557C721.552 566.349 721.79 566.05 721.953 565.661C722.116 565.271 722.198 564.804 722.198 564.261C722.198 563.73 722.118 563.262 721.958 562.856C721.798 562.45 721.562 562.132 721.249 561.902C720.935 561.672 720.549 561.557 720.088 561.557C719.609 561.557 719.209 561.678 718.89 561.921C718.573 562.164 718.335 562.49 718.176 562.899C718.019 563.308 717.941 563.762 717.941 564.261C717.941 564.772 718.021 565.224 718.18 565.617C718.343 566.007 718.583 566.314 718.899 566.538C719.219 566.758 719.615 566.869 720.088 566.869ZM728.468 568.153C727.759 568.153 727.147 567.997 726.632 567.684C726.121 567.367 725.726 566.926 725.448 566.36C725.173 565.792 725.036 565.13 725.036 564.376C725.036 563.621 725.173 562.957 725.448 562.381C725.726 561.803 726.113 561.352 726.608 561.029C727.107 560.703 727.688 560.54 728.353 560.54C728.737 560.54 729.116 560.604 729.489 560.732C729.863 560.86 730.204 561.068 730.511 561.355C730.817 561.64 731.062 562.017 731.244 562.487C731.426 562.957 731.517 563.535 731.517 564.222V564.702H725.841V563.724H730.367C730.367 563.308 730.284 562.937 730.117 562.612C729.954 562.286 729.721 562.028 729.418 561.84C729.117 561.651 728.762 561.557 728.353 561.557C727.903 561.557 727.513 561.669 727.184 561.892C726.858 562.113 726.607 562.401 726.431 562.755C726.255 563.11 726.167 563.49 726.167 563.896V564.548C726.167 565.104 726.263 565.576 726.455 565.963C726.65 566.346 726.92 566.638 727.265 566.84C727.61 567.038 728.011 567.137 728.468 567.137C728.766 567.137 729.034 567.096 729.274 567.012C729.517 566.926 729.726 566.798 729.902 566.629C730.078 566.456 730.213 566.242 730.309 565.987L731.402 566.293C731.287 566.664 731.094 566.99 730.822 567.271C730.551 567.549 730.215 567.767 729.815 567.923C729.416 568.077 728.967 568.153 728.468 568.153ZM734.37 563.57V568H733.238V560.636H734.331V561.787H734.427C734.6 561.413 734.862 561.113 735.214 560.886C735.565 560.656 736.019 560.54 736.575 560.54C737.074 560.54 737.51 560.643 737.884 560.847C738.258 561.049 738.549 561.355 738.756 561.768C738.964 562.177 739.068 562.695 739.068 563.321V568H737.937V563.398C737.937 562.819 737.786 562.369 737.486 562.046C737.185 561.72 736.773 561.557 736.249 561.557C735.888 561.557 735.565 561.635 735.281 561.792C734.999 561.948 734.777 562.177 734.614 562.477C734.451 562.778 734.37 563.142 734.37 563.57ZM744.338 560.636V561.595H740.522V560.636H744.338ZM741.634 558.872H742.765V565.891C742.765 566.21 742.812 566.45 742.904 566.61C743 566.766 743.122 566.872 743.269 566.926C743.419 566.977 743.577 567.003 743.743 567.003C743.868 567.003 743.97 566.996 744.05 566.984C744.13 566.968 744.194 566.955 744.242 566.945L744.472 567.962C744.395 567.99 744.288 568.019 744.151 568.048C744.013 568.08 743.839 568.096 743.628 568.096C743.309 568.096 742.995 568.027 742.689 567.89C742.385 567.752 742.133 567.543 741.931 567.262C741.733 566.98 741.634 566.626 741.634 566.197V558.872Z" fill="white"/>
</g>
<rect x="826.5" y="634.5" width="127" height="69" rx="4.5" stroke="url(#paint3_linear_1_114)" stroke-opacity="0.1" stroke-linecap="round" stroke-dasharray="9 9"/>
<g filter="url(#filter5_b_1_114)">
<rect x="841" y="649" width="98" height="40" rx="8" fill="#7F8C99" fill-opacity="0.35"/>
<rect x="841" y="649" width="98" height="40" rx="8" stroke="#1F2024" stroke-width="1.5" stroke-linecap="round" stroke-linejoin="round"/>
<path d="M871.503 674V675.055H865.367V674H871.503ZM877.607 674V675.055H871.471V674H877.607ZM878.783 674V664.182H884.709V665.237H879.972V668.554H884.402V669.609H879.972V672.945H884.785V674H878.783ZM887.83 669.57V674H886.698V666.636H887.791V667.787H887.887C888.06 667.413 888.322 667.113 888.673 666.886C889.025 666.656 889.479 666.54 890.035 666.54C890.533 666.54 890.97 666.643 891.344 666.847C891.717 667.049 892.008 667.355 892.216 667.768C892.424 668.177 892.528 668.695 892.528 669.321V674H891.396V669.398C891.396 668.819 891.246 668.369 890.946 668.046C890.645 667.72 890.233 667.557 889.709 667.557C889.348 667.557 889.025 667.635 888.74 667.792C888.459 667.948 888.237 668.177 888.074 668.477C887.911 668.778 887.83 669.142 887.83 669.57ZM897.376 674.153C896.762 674.153 896.22 673.998 895.75 673.688C895.281 673.375 894.913 672.934 894.648 672.365C894.383 671.793 894.25 671.117 894.25 670.337C894.25 669.564 894.383 668.893 894.648 668.324C894.913 667.755 895.282 667.316 895.755 667.006C896.228 666.695 896.775 666.54 897.395 666.54C897.874 666.54 898.253 666.62 898.531 666.78C898.812 666.937 899.026 667.116 899.173 667.317C899.324 667.515 899.44 667.678 899.523 667.806H899.619V664.182H900.751V674H899.658V672.869H899.523C899.44 673.003 899.322 673.172 899.169 673.377C899.015 673.578 898.796 673.759 898.512 673.919C898.227 674.075 897.849 674.153 897.376 674.153ZM897.529 673.137C897.983 673.137 898.366 673.019 898.68 672.782C898.993 672.543 899.231 672.212 899.394 671.79C899.557 671.365 899.638 670.874 899.638 670.318C899.638 669.768 899.559 669.287 899.399 668.875C899.239 668.46 899.002 668.137 898.689 667.907C898.376 667.673 897.989 667.557 897.529 667.557C897.05 667.557 896.65 667.68 896.331 667.926C896.014 668.169 895.776 668.5 895.616 668.918C895.46 669.334 895.381 669.8 895.381 670.318C895.381 670.842 895.461 671.319 895.621 671.747C895.784 672.172 896.024 672.511 896.34 672.763C896.66 673.012 897.056 673.137 897.529 673.137ZM908.523 674V675.055H902.387V674H908.523ZM914.627 674V675.055H908.491V674H914.627Z" fill="white"/>
</g>
<rect x="496.5" y="634.5" width="127" height="69" rx="4.5" stroke="url(#paint4_linear_1_114)" stroke-opacity="0.1" stroke-linecap="round" stroke-dasharray="9 9"/>
<g filter="url(#filter6_b_1_114)">
<rect x="515.5" y="649" width="89" height="40" rx="8" fill="#7F8C99" fill-opacity="0.35"/>
<rect x="515.5" y="649" width="89" height="40" rx="8" stroke="#1F2024" stroke-width="1.5" stroke-linecap="round" stroke-linejoin="round"/>
<path d="M541.23 674H539.983L543.588 664.182H544.815L548.421 674H547.174L544.24 665.735H544.164L541.23 674ZM541.69 670.165H546.714V671.219H541.69V670.165ZM552.788 674.153C552.098 674.153 551.503 673.99 551.005 673.664C550.506 673.338 550.122 672.889 549.854 672.317C549.586 671.745 549.451 671.092 549.451 670.357C549.451 669.609 549.589 668.949 549.864 668.377C550.142 667.801 550.528 667.352 551.024 667.029C551.522 666.703 552.104 666.54 552.769 666.54C553.287 666.54 553.753 666.636 554.169 666.828C554.584 667.02 554.925 667.288 555.19 667.634C555.455 667.979 555.62 668.381 555.684 668.842H554.552C554.466 668.506 554.274 668.209 553.977 667.95C553.683 667.688 553.287 667.557 552.788 667.557C552.347 667.557 551.96 667.672 551.628 667.902C551.299 668.129 551.041 668.45 550.856 668.866C550.674 669.278 550.583 669.762 550.583 670.318C550.583 670.887 550.672 671.382 550.851 671.804C551.033 672.226 551.289 672.554 551.618 672.787C551.951 673.02 552.341 673.137 552.788 673.137C553.082 673.137 553.349 673.086 553.589 672.984C553.828 672.881 554.031 672.734 554.197 672.543C554.364 672.351 554.482 672.121 554.552 671.852H555.684C555.62 672.287 555.461 672.678 555.209 673.027C554.96 673.372 554.629 673.647 554.217 673.851C553.808 674.053 553.331 674.153 552.788 674.153ZM560.54 666.636V667.595H556.724V666.636H560.54ZM557.836 664.872H558.967V671.891C558.967 672.21 559.014 672.45 559.107 672.61C559.202 672.766 559.324 672.872 559.471 672.926C559.621 672.977 559.779 673.003 559.945 673.003C560.07 673.003 560.172 672.996 560.252 672.984C560.332 672.968 560.396 672.955 560.444 672.945L560.674 673.962C560.597 673.99 560.49 674.019 560.353 674.048C560.216 674.08 560.041 674.096 559.83 674.096C559.511 674.096 559.198 674.027 558.891 673.89C558.587 673.752 558.335 673.543 558.133 673.262C557.935 672.98 557.836 672.626 557.836 672.197V664.872ZM562.242 674V666.636H563.373V674H562.242ZM562.817 665.409C562.597 665.409 562.406 665.334 562.247 665.184C562.09 665.034 562.012 664.853 562.012 664.642C562.012 664.431 562.09 664.251 562.247 664.1C562.406 663.95 562.597 663.875 562.817 663.875C563.038 663.875 563.226 663.95 563.383 664.1C563.543 664.251 563.622 664.431 563.622 664.642C563.622 664.853 563.543 665.034 563.383 665.184C563.226 665.334 563.038 665.409 562.817 665.409ZM568.437 674.153C567.772 674.153 567.189 673.995 566.687 673.679C566.188 673.362 565.799 672.92 565.517 672.351C565.239 671.782 565.1 671.117 565.1 670.357C565.1 669.589 565.239 668.92 565.517 668.348C565.799 667.776 566.188 667.331 566.687 667.015C567.189 666.699 567.772 666.54 568.437 666.54C569.102 666.54 569.683 666.699 570.182 667.015C570.684 667.331 571.074 667.776 571.352 668.348C571.633 668.92 571.774 669.589 571.774 670.357C571.774 671.117 571.633 671.782 571.352 672.351C571.074 672.92 570.684 673.362 570.182 673.679C569.683 673.995 569.102 674.153 568.437 674.153ZM568.437 673.137C568.942 673.137 569.357 673.008 569.683 672.749C570.009 672.49 570.251 672.15 570.407 671.728C570.564 671.306 570.642 670.849 570.642 670.357C570.642 669.864 570.564 669.406 570.407 668.981C570.251 668.556 570.009 668.212 569.683 667.95C569.357 667.688 568.942 667.557 568.437 667.557C567.932 667.557 567.516 667.688 567.19 667.95C566.864 668.212 566.623 668.556 566.467 668.981C566.31 669.406 566.232 669.864 566.232 670.357C566.232 670.849 566.31 671.306 566.467 671.728C566.623 672.15 566.864 672.49 567.19 672.749C567.516 673.008 567.932 673.137 568.437 673.137ZM574.632 669.57V674H573.501V666.636H574.594V667.787H574.69C574.862 667.413 575.124 667.113 575.476 666.886C575.827 666.656 576.281 666.54 576.837 666.54C577.336 666.54 577.772 666.643 578.146 666.847C578.52 667.049 578.811 667.355 579.019 667.768C579.226 668.177 579.33 668.695 579.33 669.321V674H578.199V669.398C578.199 668.819 578.049 668.369 577.748 668.046C577.448 667.72 577.035 667.557 576.511 667.557C576.15 667.557 575.827 667.635 575.543 667.792C575.262 667.948 575.039 668.177 574.876 668.477C574.713 668.778 574.632 669.142 574.632 669.57Z" fill="white"/>
</g>
<rect x="662.5" y="417.5" width="127" height="69" rx="4.5" stroke="url(#paint5_linear_1_114)" stroke-opacity="0.1" stroke-linecap="round" stroke-dasharray="9 9"/>
<g filter="url(#filter7_b_1_114)">
<rect x="674" y="432" width="104" height="40" rx="8" fill="#7F8C99" fill-opacity="0.35"/>
<rect x="674" y="432" width="104" height="40" rx="8" stroke="#1F2024" stroke-width="1.5" stroke-linecap="round" stroke-linejoin="round"/>
<path d="M704.155 457V458.055H698.018V457H704.155ZM710.259 457V458.055H704.122V457H710.259ZM716.804 449.636C716.746 449.151 716.513 448.773 716.104 448.505C715.695 448.237 715.193 448.102 714.599 448.102C714.164 448.102 713.784 448.173 713.458 448.313C713.135 448.454 712.882 448.647 712.7 448.893C712.521 449.139 712.432 449.419 712.432 449.732C712.432 449.994 712.494 450.22 712.619 450.408C712.746 450.594 712.909 450.749 713.108 450.873C713.306 450.995 713.514 451.095 713.731 451.175C713.948 451.252 714.148 451.314 714.33 451.362L715.327 451.631C715.583 451.698 715.867 451.79 716.181 451.909C716.497 452.027 716.799 452.188 717.087 452.393C717.378 452.594 717.617 452.853 717.806 453.17C717.994 453.486 718.089 453.874 718.089 454.335C718.089 454.865 717.95 455.344 717.672 455.773C717.397 456.201 716.994 456.541 716.463 456.794C715.936 457.046 715.295 457.173 714.541 457.173C713.838 457.173 713.229 457.059 712.715 456.832C712.203 456.605 711.8 456.289 711.506 455.883C711.216 455.477 711.051 455.006 711.013 454.469H712.24C712.272 454.839 712.397 455.146 712.614 455.389C712.834 455.629 713.112 455.808 713.448 455.926C713.787 456.041 714.151 456.099 714.541 456.099C714.995 456.099 715.402 456.025 715.764 455.878C716.125 455.728 716.411 455.52 716.622 455.255C716.833 454.987 716.938 454.673 716.938 454.315C716.938 453.989 716.847 453.724 716.665 453.52C716.483 453.315 716.243 453.149 715.946 453.021C715.648 452.893 715.327 452.781 714.982 452.685L713.774 452.34C713.007 452.12 712.4 451.805 711.952 451.396C711.505 450.987 711.281 450.451 711.281 449.79C711.281 449.24 711.43 448.761 711.727 448.352C712.027 447.939 712.43 447.62 712.935 447.393C713.443 447.163 714.011 447.048 714.637 447.048C715.27 447.048 715.832 447.161 716.324 447.388C716.817 447.612 717.207 447.919 717.494 448.308C717.785 448.698 717.938 449.141 717.954 449.636H716.804ZM723.092 449.636V450.595H719.276V449.636H723.092ZM720.389 447.872H721.52V454.891C721.52 455.21 721.566 455.45 721.659 455.61C721.755 455.766 721.876 455.872 722.023 455.926C722.174 455.977 722.332 456.003 722.498 456.003C722.623 456.003 722.725 455.996 722.805 455.984C722.885 455.968 722.949 455.955 722.997 455.945L723.227 456.962C723.15 456.99 723.043 457.019 722.905 457.048C722.768 457.08 722.594 457.096 722.383 457.096C722.063 457.096 721.75 457.027 721.443 456.89C721.14 456.752 720.887 456.543 720.686 456.262C720.488 455.98 720.389 455.626 720.389 455.197V447.872ZM726.961 457.173C726.495 457.173 726.071 457.085 725.691 456.909C725.31 456.73 725.008 456.473 724.785 456.137C724.561 455.798 724.449 455.389 724.449 454.91C724.449 454.488 724.532 454.146 724.698 453.884C724.865 453.619 725.087 453.411 725.365 453.261C725.643 453.11 725.95 452.999 726.285 452.925C726.624 452.848 726.964 452.788 727.306 452.743C727.754 452.685 728.117 452.642 728.395 452.613C728.676 452.581 728.88 452.529 729.008 452.455C729.139 452.382 729.205 452.254 729.205 452.072V452.033C729.205 451.56 729.075 451.193 728.816 450.931C728.561 450.669 728.172 450.538 727.652 450.538C727.111 450.538 726.688 450.656 726.381 450.892C726.074 451.129 725.859 451.381 725.734 451.65L724.66 451.266C724.852 450.819 725.108 450.471 725.427 450.221C725.75 449.969 726.101 449.793 726.482 449.694C726.865 449.592 727.242 449.54 727.613 449.54C727.85 449.54 728.121 449.569 728.428 449.627C728.738 449.681 729.037 449.795 729.325 449.967C729.616 450.14 729.857 450.4 730.049 450.749C730.24 451.097 730.336 451.564 730.336 452.148V457H729.205V456.003H729.147C729.071 456.163 728.943 456.334 728.764 456.516C728.585 456.698 728.347 456.853 728.049 456.981C727.752 457.109 727.389 457.173 726.961 457.173ZM727.134 456.156C727.581 456.156 727.958 456.068 728.265 455.893C728.575 455.717 728.809 455.49 728.965 455.212C729.125 454.934 729.205 454.641 729.205 454.335V453.299C729.157 453.357 729.051 453.409 728.888 453.457C728.729 453.502 728.543 453.542 728.332 453.577C728.125 453.609 727.922 453.638 727.723 453.663C727.528 453.686 727.37 453.705 727.249 453.721C726.955 453.759 726.68 453.822 726.424 453.908C726.172 453.991 725.967 454.117 725.811 454.287C725.657 454.453 725.581 454.68 725.581 454.967C725.581 455.36 725.726 455.658 726.017 455.859C726.311 456.057 726.683 456.156 727.134 456.156ZM732.401 457V449.636H733.494V450.749H733.571C733.705 450.384 733.948 450.089 734.3 449.862C734.651 449.635 735.048 449.521 735.489 449.521C735.572 449.521 735.676 449.523 735.8 449.526C735.925 449.529 736.019 449.534 736.083 449.54V450.691C736.045 450.681 735.957 450.667 735.819 450.648C735.685 450.626 735.543 450.614 735.393 450.614C735.035 450.614 734.715 450.689 734.434 450.84C734.156 450.987 733.935 451.191 733.772 451.453C733.613 451.712 733.533 452.008 733.533 452.34V457H732.401ZM741.088 449.636V450.595H737.272V449.636H741.088ZM738.384 447.872H739.516V454.891C739.516 455.21 739.562 455.45 739.655 455.61C739.75 455.766 739.872 455.872 740.019 455.926C740.169 455.977 740.327 456.003 740.494 456.003C740.618 456.003 740.72 455.996 740.8 455.984C740.88 455.968 740.944 455.955 740.992 455.945L741.222 456.962C741.146 456.99 741.038 457.019 740.901 457.048C740.764 457.08 740.589 457.096 740.379 457.096C740.059 457.096 739.746 457.027 739.439 456.89C739.135 456.752 738.883 456.543 738.681 456.262C738.483 455.98 738.384 455.626 738.384 455.197V447.872ZM747.872 457V458.055H741.735V457H747.872ZM753.976 457V458.055H747.839V457H753.976Z" fill="white"/>
</g>
<path d="M627 668.5C626.724 668.5 626.5 668.724 626.5 669C626.5 669.276 626.724 669.5 627 669.5V668.5ZM726.354 600.646C726.158 600.451 725.842 600.451 725.646 600.646L722.464 603.828C722.269 604.024 722.269 604.34 722.464 604.536C722.66 604.731 722.976 604.731 723.172 604.536L726 601.707L728.828 604.536C729.024 604.731 729.34 604.731 729.536 604.536C729.731 604.34 729.731 604.024 729.536 603.828L726.354 600.646ZM627 669.5H702V668.5H627V669.5ZM726.5 645V601H725.5V645H726.5ZM702 669.5C715.531 669.5 726.5 658.531 726.5 645H725.5C725.5 657.979 714.979 668.5 702 668.5V669.5Z" fill="#FF0032"/>
<path d="M793 562.5C792.724 562.5 792.5 562.724 792.5 563C792.5 563.276 792.724 563.5 793 563.5V562.5ZM807.5 600.094C807.5 600.37 807.724 600.594 808 600.594C808.276 600.594 808.5 600.37 808.5 600.094H807.5ZM808.5 631.906C808.5 631.63 808.276 631.406 808 631.406C807.724 631.406 807.5 631.63 807.5 631.906H808.5ZM823.354 669.354C823.549 669.158 823.549 668.842 823.354 668.646L820.172 665.464C819.976 665.269 819.66 665.269 819.464 665.464C819.269 665.66 819.269 665.976 819.464 666.172L822.293 669L819.464 671.828C819.269 672.024 819.269 672.34 819.464 672.536C819.66 672.731 819.976 672.731 820.172 672.536L823.354 669.354ZM807.5 578V600.094H808.5V578H807.5ZM807.5 631.906V654H808.5V631.906H807.5ZM807.5 654C807.5 662.56 814.44 669.5 823 669.5V668.5C814.992 668.5 808.5 662.008 808.5 654H807.5ZM793 563.5C801.008 563.5 807.5 569.992 807.5 578H808.5C808.5 569.44 801.56 562.5 793 562.5V563.5Z" fill="#FF0032"/>
<path d="M800.065 621.149C799.339 621.149 798.714 620.994 798.19 620.684C797.669 620.37 797.266 619.931 796.982 619.365C796.701 618.796 796.56 618.13 796.56 617.366C796.56 616.612 796.701 615.947 796.982 615.372C797.266 614.797 797.663 614.347 798.171 614.025C798.682 613.702 799.28 613.54 799.964 613.54C800.379 613.54 800.782 613.609 801.172 613.747C801.562 613.884 801.912 614.1 802.222 614.394C802.532 614.688 802.776 615.07 802.955 615.54C803.134 616.006 803.224 616.574 803.224 617.241V617.75H797.37V616.676H801.819C801.819 616.299 801.742 615.965 801.589 615.674C801.436 615.38 801.22 615.148 800.942 614.979C800.667 614.809 800.344 614.725 799.973 614.725C799.571 614.725 799.219 614.824 798.919 615.022C798.622 615.217 798.391 615.472 798.228 615.789C798.069 616.102 797.989 616.442 797.989 616.81V617.649C797.989 618.141 798.075 618.56 798.248 618.905C798.423 619.25 798.668 619.514 798.981 619.696C799.294 619.875 799.66 619.964 800.079 619.964C800.351 619.964 800.598 619.926 800.822 619.849C801.046 619.77 801.239 619.651 801.402 619.495C801.565 619.338 801.69 619.145 801.776 618.915L803.133 619.159C803.024 619.559 802.829 619.909 802.548 620.209C802.27 620.506 801.92 620.738 801.498 620.904C801.079 621.067 800.601 621.149 800.065 621.149ZM806.099 616.628V621H804.666V613.636H806.042V614.835H806.133C806.302 614.445 806.567 614.132 806.929 613.895C807.293 613.659 807.752 613.54 808.304 613.54C808.806 613.54 809.246 613.646 809.623 613.857C810 614.065 810.292 614.375 810.5 614.787C810.708 615.199 810.812 615.709 810.812 616.316V621H809.378V616.489C809.378 615.955 809.239 615.538 808.961 615.238C808.683 614.934 808.301 614.782 807.815 614.782C807.483 614.782 807.187 614.854 806.929 614.998C806.673 615.142 806.47 615.353 806.32 615.631C806.173 615.906 806.099 616.238 806.099 616.628ZM815.342 621.144C814.748 621.144 814.217 620.992 813.751 620.688C813.287 620.382 812.923 619.945 812.658 619.38C812.395 618.811 812.264 618.128 812.264 617.333C812.264 616.537 812.397 615.856 812.662 615.29C812.931 614.725 813.298 614.292 813.765 613.991C814.232 613.691 814.761 613.54 815.352 613.54C815.809 613.54 816.176 613.617 816.454 613.771C816.736 613.921 816.953 614.097 817.106 614.298C817.263 614.499 817.384 614.677 817.471 614.83H817.557V611.182H818.99V621H817.591V619.854H817.471C817.384 620.011 817.26 620.19 817.097 620.391C816.937 620.593 816.716 620.768 816.435 620.919C816.154 621.069 815.79 621.144 815.342 621.144ZM815.659 619.921C816.071 619.921 816.419 619.813 816.704 619.595C816.991 619.375 817.209 619.07 817.356 618.68C817.506 618.29 817.581 617.836 817.581 617.318C817.581 616.807 817.507 616.359 817.36 615.976C817.213 615.592 816.998 615.294 816.713 615.079C816.429 614.865 816.077 614.758 815.659 614.758C815.227 614.758 814.868 614.87 814.58 615.094C814.292 615.317 814.075 615.623 813.928 616.009C813.784 616.396 813.712 616.832 813.712 617.318C813.712 617.81 813.786 618.253 813.933 618.646C814.08 619.039 814.297 619.351 814.585 619.581C814.876 619.808 815.234 619.921 815.659 619.921Z" fill="white"/>
<path d="M659 563.5C659.276 563.5 659.5 563.276 659.5 563C659.5 562.724 659.276 562.5 659 562.5V563.5ZM642.906 562.5C642.63 562.5 642.406 562.724 642.406 563C642.406 563.276 642.63 563.5 642.906 563.5V562.5ZM559.646 631.354C559.842 631.549 560.158 631.549 560.354 631.354L563.536 628.172C563.731 627.976 563.731 627.66 563.536 627.464C563.34 627.269 563.024 627.269 562.828 627.464L560 630.293L557.172 627.464C556.976 627.269 556.66 627.269 556.464 627.464C556.269 627.66 556.269 627.976 556.464 628.172L559.646 631.354ZM576.094 563.5C576.37 563.5 576.594 563.276 576.594 563C576.594 562.724 576.37 562.5 576.094 562.5V563.5ZM646.93 563.5C647.206 563.5 647.43 563.276 647.43 563C647.43 562.724 647.206 562.5 646.93 562.5V563.5ZM654.977 562.5C654.7 562.5 654.477 562.724 654.477 563C654.477 563.276 654.7 563.5 654.977 563.5V562.5ZM560.5 626.674C560.5 626.398 560.276 626.174 560 626.174C559.724 626.174 559.5 626.398 559.5 626.674H560.5ZM559.5 618.023C559.5 618.3 559.724 618.523 560 618.523C560.276 618.523 560.5 618.3 560.5 618.023H559.5ZM560.5 609.372C560.5 609.096 560.276 608.872 560 608.872C559.724 608.872 559.5 609.096 559.5 609.372H560.5ZM559.5 600.721C559.5 600.997 559.724 601.221 560 601.221C560.276 601.221 560.5 600.997 560.5 600.721H559.5ZM560.5 592.07C560.5 591.794 560.276 591.57 560 591.57C559.724 591.57 559.5 591.794 559.5 592.07H560.5ZM559.5 583.419C559.5 583.695 559.724 583.919 560 583.919C560.276 583.919 560.5 583.695 560.5 583.419H559.5ZM561.683 573.125C561.789 572.87 561.668 572.577 561.413 572.471C561.158 572.366 560.865 572.487 560.759 572.742L561.683 573.125ZM569.742 563.759C569.487 563.865 569.366 564.158 569.471 564.413C569.577 564.668 569.87 564.789 570.125 564.683L569.742 563.759ZM642.906 563.5H646.93V562.5H642.906V563.5ZM654.977 563.5H659V562.5H654.977V563.5ZM560.5 631V626.674H559.5V631H560.5ZM560.5 618.023V609.372H559.5V618.023H560.5ZM560.5 600.721V592.07H559.5V600.721H560.5ZM560.5 583.419V579.094H559.5V583.419H560.5ZM560.5 579.094C560.5 576.978 560.921 574.963 561.683 573.125L560.759 572.742C559.948 574.699 559.5 576.845 559.5 579.094H560.5ZM570.125 564.683C571.963 563.921 573.978 563.5 576.094 563.5V562.5C573.845 562.5 571.699 562.948 569.742 563.759L570.125 564.683Z" fill="#FF0032"/>
<path d="M586.447 568.153C585.757 568.153 585.162 567.99 584.664 567.664C584.165 567.338 583.781 566.889 583.513 566.317C583.244 565.745 583.11 565.092 583.11 564.357C583.11 563.609 583.248 562.949 583.523 562.377C583.801 561.801 584.187 561.352 584.683 561.029C585.181 560.703 585.763 560.54 586.428 560.54C586.945 560.54 587.412 560.636 587.828 560.828C588.243 561.02 588.583 561.288 588.849 561.634C589.114 561.979 589.279 562.381 589.342 562.842H588.211C588.125 562.506 587.933 562.209 587.636 561.95C587.342 561.688 586.945 561.557 586.447 561.557C586.006 561.557 585.619 561.672 585.287 561.902C584.958 562.129 584.7 562.45 584.515 562.866C584.333 563.278 584.242 563.762 584.242 564.318C584.242 564.887 584.331 565.382 584.51 565.804C584.692 566.226 584.948 566.554 585.277 566.787C585.61 567.02 585.999 567.137 586.447 567.137C586.741 567.137 587.008 567.086 587.247 566.984C587.487 566.881 587.69 566.734 587.856 566.543C588.023 566.351 588.141 566.121 588.211 565.852H589.342C589.279 566.287 589.12 566.678 588.868 567.027C588.619 567.372 588.288 567.647 587.876 567.851C587.466 568.053 586.99 568.153 586.447 568.153ZM593.839 568.153C593.175 568.153 592.591 567.995 592.09 567.679C591.591 567.362 591.201 566.92 590.92 566.351C590.642 565.782 590.503 565.117 590.503 564.357C590.503 563.589 590.642 562.92 590.92 562.348C591.201 561.776 591.591 561.331 592.09 561.015C592.591 560.699 593.175 560.54 593.839 560.54C594.504 560.54 595.086 560.699 595.584 561.015C596.086 561.331 596.476 561.776 596.754 562.348C597.035 562.92 597.176 563.589 597.176 564.357C597.176 565.117 597.035 565.782 596.754 566.351C596.476 566.92 596.086 567.362 595.584 567.679C595.086 567.995 594.504 568.153 593.839 568.153ZM593.839 567.137C594.344 567.137 594.76 567.008 595.086 566.749C595.412 566.49 595.653 566.15 595.81 565.728C595.966 565.306 596.045 564.849 596.045 564.357C596.045 563.864 595.966 563.406 595.81 562.981C595.653 562.556 595.412 562.212 595.086 561.95C594.76 561.688 594.344 561.557 593.839 561.557C593.334 561.557 592.919 561.688 592.593 561.95C592.267 562.212 592.026 562.556 591.869 562.981C591.712 563.406 591.634 563.864 591.634 564.357C591.634 564.849 591.712 565.306 591.869 565.728C592.026 566.15 592.267 566.49 592.593 566.749C592.919 567.008 593.334 567.137 593.839 567.137ZM599.886 563.57V568H598.755V560.636H599.848V561.787H599.944C600.116 561.413 600.378 561.113 600.73 560.886C601.081 560.656 601.535 560.54 602.091 560.54C602.59 560.54 603.026 560.643 603.4 560.847C603.774 561.049 604.065 561.355 604.273 561.768C604.48 562.177 604.584 562.695 604.584 563.321V568H603.453V563.398C603.453 562.819 603.303 562.369 603.002 562.046C602.702 561.72 602.289 561.557 601.765 561.557C601.404 561.557 601.081 561.635 600.797 561.792C600.516 561.948 600.293 562.177 600.13 562.477C599.967 562.778 599.886 563.142 599.886 563.57ZM609.705 560.636V561.595H605.889V560.636H609.705ZM607.002 558.872H608.133V565.891C608.133 566.21 608.179 566.45 608.272 566.61C608.368 566.766 608.489 566.872 608.636 566.926C608.787 566.977 608.945 567.003 609.111 567.003C609.236 567.003 609.338 566.996 609.418 566.984C609.498 566.968 609.562 566.955 609.61 566.945L609.84 567.962C609.763 567.99 609.656 568.019 609.519 568.048C609.381 568.08 609.207 568.096 608.996 568.096C608.676 568.096 608.363 568.027 608.056 567.89C607.753 567.752 607.5 567.543 607.299 567.262C607.101 566.98 607.002 566.626 607.002 566.197V558.872ZM611.259 568V560.636H612.39V568H611.259ZM611.834 559.409C611.614 559.409 611.423 559.334 611.264 559.184C611.107 559.034 611.029 558.853 611.029 558.642C611.029 558.431 611.107 558.251 611.264 558.1C611.423 557.95 611.614 557.875 611.834 557.875C612.055 557.875 612.243 557.95 612.4 558.1C612.56 558.251 612.64 558.431 612.64 558.642C612.64 558.853 612.56 559.034 612.4 559.184C612.243 559.334 612.055 559.409 611.834 559.409ZM615.445 563.57V568H614.314V560.636H615.407V561.787H615.503C615.675 561.413 615.938 561.113 616.289 560.886C616.641 560.656 617.095 560.54 617.651 560.54C618.149 560.54 618.585 560.643 618.959 560.847C619.333 561.049 619.624 561.355 619.832 561.768C620.04 562.177 620.144 562.695 620.144 563.321V568H619.012V563.398C619.012 562.819 618.862 562.369 618.561 562.046C618.261 561.72 617.849 561.557 617.325 561.557C616.963 561.557 616.641 561.635 616.356 561.792C616.075 561.948 615.853 562.177 615.69 562.477C615.527 562.778 615.445 563.142 615.445 563.57ZM626.703 564.989V560.636H627.834V568H626.703V566.754H626.626C626.454 567.127 626.185 567.445 625.821 567.708C625.457 567.966 624.996 568.096 624.44 568.096C623.98 568.096 623.571 567.995 623.213 567.794C622.855 567.589 622.574 567.282 622.369 566.873C622.165 566.461 622.062 565.942 622.062 565.315V560.636H623.194V565.239C623.194 565.776 623.344 566.204 623.644 566.523C623.948 566.843 624.335 567.003 624.805 567.003C625.086 567.003 625.372 566.931 625.663 566.787C625.957 566.643 626.203 566.423 626.401 566.126C626.602 565.828 626.703 565.45 626.703 564.989ZM632.846 568.153C632.136 568.153 631.524 567.997 631.009 567.684C630.498 567.367 630.103 566.926 629.825 566.36C629.55 565.792 629.413 565.13 629.413 564.376C629.413 563.621 629.55 562.957 629.825 562.381C630.103 561.803 630.49 561.352 630.985 561.029C631.484 560.703 632.066 560.54 632.73 560.54C633.114 560.54 633.493 560.604 633.867 560.732C634.241 560.86 634.581 561.068 634.888 561.355C635.195 561.64 635.439 562.017 635.621 562.487C635.803 562.957 635.895 563.535 635.895 564.222V564.702H630.218V563.724H634.744C634.744 563.308 634.661 562.937 634.495 562.612C634.332 562.286 634.098 562.028 633.795 561.84C633.494 561.651 633.14 561.557 632.73 561.557C632.28 561.557 631.89 561.669 631.561 561.892C631.235 562.113 630.984 562.401 630.808 562.755C630.632 563.11 630.544 563.49 630.544 563.896V564.548C630.544 565.104 630.64 565.576 630.832 565.963C631.027 566.346 631.297 566.638 631.642 566.84C631.987 567.038 632.389 567.137 632.846 567.137C633.143 567.137 633.411 567.096 633.651 567.012C633.894 566.926 634.103 566.798 634.279 566.629C634.455 566.456 634.591 566.242 634.686 565.987L635.779 566.293C635.664 566.664 635.471 566.99 635.199 567.271C634.928 567.549 634.592 567.767 634.193 567.923C633.793 568.077 633.344 568.153 632.846 568.153Z" fill="white"/>
<path d="M726.5 490C726.5 489.724 726.276 489.5 726 489.5C725.724 489.5 725.5 489.724 725.5 490H726.5ZM725.646 525.354C725.842 525.549 726.158 525.549 726.354 525.354L729.536 522.172C729.731 521.976 729.731 521.66 729.536 521.464C729.34 521.269 729.024 521.269 728.828 521.464L726 524.293L723.172 521.464C722.976 521.269 722.66 521.269 722.464 521.464C722.269 521.66 722.269 521.976 722.464 522.172L725.646 525.354ZM725.5 490V525H726.5V490H725.5Z" fill="#FF0032"/>
</g>
</g>
</g>
<defs>
<filter id="filter0_b_1_114" x="454.25" y="146.25" width="135.5" height="71.5" filterUnits="userSpaceOnUse" color-interpolation-filters="sRGB">
<feFlood flood-opacity="0" result="BackgroundImageFix"/>
<feGaussianBlur in="BackgroundImageFix" stdDeviation="7.5"/>
<feComposite in2="SourceAlpha" operator="in" result="effect1_backgroundBlur_1_114"/>
<feBlend mode="normal" in="SourceGraphic" in2="effect1_backgroundBlur_1_114" result="shape"/>
</filter>
<filter id="filter1_b_1_114" x="878.25" y="146.25" width="129.5" height="71.5" filterUnits="userSpaceOnUse" color-interpolation-filters="sRGB">
<feFlood flood-opacity="0" result="BackgroundImageFix"/>
<feGaussianBlur in="BackgroundImageFix" stdDeviation="7.5"/>
<feComposite in2="SourceAlpha" operator="in" result="effect1_backgroundBlur_1_114"/>
<feBlend mode="normal" in="SourceGraphic" in2="effect1_backgroundBlur_1_114" result="shape"/>
</filter>
<filter id="filter2_b_1_114" x="606.25" y="146.25" width="118.5" height="71.5" filterUnits="userSpaceOnUse" color-interpolation-filters="sRGB">
<feFlood flood-opacity="0" result="BackgroundImageFix"/>
<feGaussianBlur in="BackgroundImageFix" stdDeviation="7.5"/>
<feComposite in2="SourceAlpha" operator="in" result="effect1_backgroundBlur_1_114"/>
<feBlend mode="normal" in="SourceGraphic" in2="effect1_backgroundBlur_1_114" result="shape"/>
</filter>
<filter id="filter3_b_1_114" x="741.25" y="146.25" width="120.5" height="71.5" filterUnits="userSpaceOnUse" color-interpolation-filters="sRGB">
<feFlood flood-opacity="0" result="BackgroundImageFix"/>
<feGaussianBlur in="BackgroundImageFix" stdDeviation="7.5"/>
<feComposite in2="SourceAlpha" operator="in" result="effect1_backgroundBlur_1_114"/>
<feBlend mode="normal" in="SourceGraphic" in2="effect1_backgroundBlur_1_114" result="shape"/>
</filter>
<filter id="filter4_b_1_114" x="666.75" y="527.25" width="118.5" height="71.5" filterUnits="userSpaceOnUse" color-interpolation-filters="sRGB">
<feFlood flood-opacity="0" result="BackgroundImageFix"/>
<feGaussianBlur in="BackgroundImageFix" stdDeviation="7.5"/>
<feComposite in2="SourceAlpha" operator="in" result="effect1_backgroundBlur_1_114"/>
<feBlend mode="normal" in="SourceGraphic" in2="effect1_backgroundBlur_1_114" result="shape"/>
</filter>
<filter id="filter5_b_1_114" x="825.25" y="633.25" width="129.5" height="71.5" filterUnits="userSpaceOnUse" color-interpolation-filters="sRGB">
<feFlood flood-opacity="0" result="BackgroundImageFix"/>
<feGaussianBlur in="BackgroundImageFix" stdDeviation="7.5"/>
<feComposite in2="SourceAlpha" operator="in" result="effect1_backgroundBlur_1_114"/>
<feBlend mode="normal" in="SourceGraphic" in2="effect1_backgroundBlur_1_114" result="shape"/>
</filter>
<filter id="filter6_b_1_114" x="499.75" y="633.25" width="120.5" height="71.5" filterUnits="userSpaceOnUse" color-interpolation-filters="sRGB">
<feFlood flood-opacity="0" result="BackgroundImageFix"/>
<feGaussianBlur in="BackgroundImageFix" stdDeviation="7.5"/>
<feComposite in2="SourceAlpha" operator="in" result="effect1_backgroundBlur_1_114"/>
<feBlend mode="normal" in="SourceGraphic" in2="effect1_backgroundBlur_1_114" result="shape"/>
</filter>
<filter id="filter7_b_1_114" x="658.25" y="416.25" width="135.5" height="71.5" filterUnits="userSpaceOnUse" color-interpolation-filters="sRGB">
<feFlood flood-opacity="0" result="BackgroundImageFix"/>
<feGaussianBlur in="BackgroundImageFix" stdDeviation="7.5"/>
<feComposite in2="SourceAlpha" operator="in" result="effect1_backgroundBlur_1_114"/>
<feBlend mode="normal" in="SourceGraphic" in2="effect1_backgroundBlur_1_114" result="shape"/>
</filter>
<linearGradient id="paint0_linear_1_114" x1="-901" y1="-1735.79" x2="-514.712" y2="2869.74" gradientUnits="userSpaceOnUse">
<stop offset="0.3855" stop-color="#7F8C99" stop-opacity="0.35"/>
<stop offset="0.9285" stop-color="#7F8C99" stop-opacity="0"/>
</linearGradient>
<linearGradient id="paint1_linear_1_114" x1="-898.285" y1="2486.41" x2="3237.96" y2="-2453.35" gradientUnits="userSpaceOnUse">
<stop offset="0.0937" stop-color="#0085FF"/>
<stop offset="0.4732" stop-color="#0085FF" stop-opacity="0"/>
</linearGradient>
<linearGradient id="paint2_linear_1_114" x1="994.5" y1="418.5" x2="429" y2="727" gradientUnits="userSpaceOnUse">
<stop offset="0.09" stop-color="#0085FF" stop-opacity="0"/>
<stop offset="0.47" stop-color="#0085FF"/>
</linearGradient>
<linearGradient id="paint3_linear_1_114" x1="1158.5" y1="524.5" x2="593" y2="833" gradientUnits="userSpaceOnUse">
<stop offset="0.09" stop-color="#0085FF" stop-opacity="0"/>
<stop offset="0.47" stop-color="#0085FF"/>
</linearGradient>
<linearGradient id="paint4_linear_1_114" x1="828.5" y1="524.5" x2="263" y2="833" gradientUnits="userSpaceOnUse">
<stop offset="0.09" stop-color="#0085FF" stop-opacity="0"/>
<stop offset="0.47" stop-color="#0085FF"/>
</linearGradient>
<linearGradient id="paint5_linear_1_114" x1="994.5" y1="307.5" x2="429" y2="616" gradientUnits="userSpaceOnUse">
<stop offset="0.09" stop-color="#0085FF" stop-opacity="0"/>
<stop offset="0.47" stop-color="#0085FF"/>
</linearGradient>
<clipPath id="clip0_1_114">
<rect width="1440" height="1314" fill="white"/>
</clipPath>
<clipPath id="clip1_1_114">
<rect width="44" height="44" fill="white" transform="translate(76 28)"/>
</clipPath>
<clipPath id="clip2_1_114">
<rect width="44" height="44" fill="white" transform="translate(1340 28)"/>
</clipPath>
<clipPath id="clip3_1_114">
<rect width="1300" height="900" fill="white" transform="translate(76 264)"/>
</clipPath>
<clipPath id="clip4_1_114">
<path d="M76 268C76 265.791 77.7909 264 80 264H1372C1374.21 264 1376 265.791 1376 268V1160C1376 1162.21 1374.21 1164 1372 1164H80C77.7908 1164 76 1162.21 76 1160V268Z" fill="white"/>
</clipPath>
</defs>
</svg>
